<svg width="93" height="46" viewBox="0 0 93 46" fill="none" xmlns="http://www.w3.org/2000/svg">
<path d="M18.0803 7.83717L14.2354 0.805054L0.341064 26.0478H10.7221L10.7056 25.9464H10.7221C10.7221 25.9464 10.6947 25.7765 10.6563 25.5709C10.6234 25.3846 10.5796 25.2037 10.5275 25.0228C10.0315 23.4388 10.2699 22.0083 11.0674 20.5668C13.4132 16.3492 15.7207 12.1096 18.0803 7.83717Z" fill="#C0C5C8"/>
<path d="M28.2804 26.0615L23.046 16.8754C22.2157 18.3443 21.473 19.6488 20.7385 20.9614C20.3905 21.5835 20.026 22.2002 19.7136 22.8497C19.1874 24.05 18.3324 25.053 17.2581 25.7162L16.5154 26.0615H28.2804Z" fill="#C0C5C8"/>
<path d="M42.3905 18.0668L41.135 14.4858L39.8795 18.0668H42.3905ZM43.1323 20.1926H39.1376L38.4956 22.0615H35.5138L39.6084 11.3043H42.6615L46.7561 22.0615H43.7744L43.1323 20.1926ZM47.9796 22.0615V11.3043H50.776L55.9406 17.8813V11.3043H58.7226V22.0615H55.9406L50.776 15.4845V22.0615H47.9796ZM66.8852 14.0578C66.5808 13.8105 66.2765 13.6298 65.9721 13.5156C65.6678 13.392 65.3729 13.3302 65.0876 13.3302C64.7261 13.3302 64.4313 13.4158 64.203 13.587C63.9747 13.7582 63.8606 13.9817 63.8606 14.2575C63.8606 14.4477 63.9177 14.6047 64.0318 14.7283C64.1459 14.852 64.2934 14.9614 64.4741 15.0565C64.6643 15.1421 64.8736 15.2182 65.1018 15.2847C65.3396 15.3513 65.5726 15.4227 65.8009 15.4987C66.714 15.8031 67.3798 16.2121 67.7983 16.7257C68.2263 17.2298 68.4403 17.8908 68.4403 18.7088C68.4403 19.2605 68.3452 19.7598 68.1549 20.2068C67.9742 20.6539 67.7032 21.0391 67.3417 21.3624C66.9898 21.6763 66.5523 21.9189 66.0292 22.0901C65.5156 22.2708 64.9306 22.3611 64.2743 22.3611C62.9142 22.3611 61.654 21.9569 60.4936 21.1484L61.692 18.8943C62.1105 19.2652 62.5243 19.541 62.9333 19.7217C63.3422 19.9025 63.7465 19.9928 64.1459 19.9928C64.6025 19.9928 64.9401 19.8882 65.1589 19.6789C65.3872 19.4697 65.5013 19.2319 65.5013 18.9656C65.5013 18.8039 65.4728 18.666 65.4157 18.5519C65.3586 18.4282 65.2635 18.3188 65.1304 18.2237C64.9972 18.1191 64.8212 18.024 64.6025 17.9384C64.3932 17.8528 64.1364 17.7577 63.8321 17.653C63.4706 17.5389 63.114 17.4153 62.7621 17.2821C62.4196 17.1394 62.1105 16.954 61.8347 16.7257C61.5684 16.4974 61.3496 16.2121 61.1784 15.8697C61.0167 15.5178 60.9359 15.0755 60.9359 14.5429C60.9359 14.0102 61.0215 13.5299 61.1927 13.1019C61.3734 12.6644 61.6207 12.2934 61.9346 11.9891C62.258 11.6752 62.6479 11.4327 63.1045 11.2615C63.5705 11.0903 64.0889 11.0047 64.6596 11.0047C65.1922 11.0047 65.7486 11.0808 66.3288 11.2329C66.909 11.3756 67.4654 11.5896 67.998 11.8749L66.8852 14.0578ZM72.6417 16.6829C72.6417 17.1109 72.7225 17.5056 72.8842 17.8671C73.0459 18.2285 73.2647 18.5424 73.5405 18.8087C73.8163 19.075 74.1349 19.2842 74.4964 19.4364C74.8673 19.5791 75.2573 19.6504 75.6663 19.6504C76.0752 19.6504 76.4604 19.5791 76.8219 19.4364C77.1928 19.2842 77.5162 19.075 77.792 18.8087C78.0774 18.5424 78.3009 18.2285 78.4626 17.8671C78.6243 17.5056 78.7051 17.1109 78.7051 16.6829C78.7051 16.2549 78.6243 15.8602 78.4626 15.4987C78.3009 15.1373 78.0774 14.8234 77.792 14.5571C77.5162 14.2908 77.1928 14.0863 76.8219 13.9436C76.4604 13.7915 76.0752 13.7154 75.6663 13.7154C75.2573 13.7154 74.8673 13.7915 74.4964 13.9436C74.1349 14.0863 73.8163 14.2908 73.5405 14.5571C73.2647 14.8234 73.0459 15.1373 72.8842 15.4987C72.7225 15.8602 72.6417 16.2549 72.6417 16.6829ZM69.717 16.6829C69.717 15.8839 69.8644 15.1421 70.1592 14.4573C70.4541 13.7629 70.8631 13.159 71.3862 12.6454C71.9093 12.1318 72.5323 11.7323 73.2551 11.4469C73.9875 11.1521 74.7912 11.0047 75.6663 11.0047C76.5318 11.0047 77.3307 11.1521 78.0631 11.4469C78.7955 11.7323 79.4232 12.1318 79.9463 12.6454C80.479 13.159 80.8927 13.7629 81.1876 14.4573C81.4824 15.1421 81.6298 15.8839 81.6298 16.6829C81.6298 17.4818 81.4824 18.2285 81.1876 18.9228C80.8927 19.6076 80.479 20.2068 79.9463 20.7204C79.4232 21.234 78.7955 21.6383 78.0631 21.9331C77.3307 22.2185 76.5318 22.3611 75.6663 22.3611C74.7912 22.3611 73.9875 22.2185 73.2551 21.9331C72.5323 21.6383 71.9093 21.234 71.3862 20.7204C70.8631 20.2068 70.4541 19.6076 70.1592 18.9228C69.8644 18.2285 69.717 17.4818 69.717 16.6829ZM86.1925 16.2406H87.1198C88.147 16.2406 88.6606 15.7936 88.6606 14.8995C88.6606 14.0055 88.147 13.5584 87.1198 13.5584H86.1925V16.2406ZM86.1925 22.0615H83.3961V11.3043H87.8474C89.0553 11.3043 89.9779 11.6181 90.6152 12.2459C91.262 12.8736 91.5853 13.7582 91.5853 14.8995C91.5853 16.0409 91.262 16.9254 90.6152 17.5532C89.9779 18.1809 89.0553 18.4948 87.8474 18.4948H86.1925V22.0615Z" fill="#181818"/>
<path d="M1.04549 35.8818H5.22748V36.8984H2.16901V38.4499H5.06698V39.4664H2.16901V41.1784H5.38799V42.1949H1.04549V35.8818ZM6.4966 35.8818H7.98571L11.0442 40.5721H11.062V35.8818H12.1855V42.1949H10.7588L7.63795 37.3531H7.62012V42.1949H6.4966V35.8818ZM13.5935 35.8818H17.7755V36.8984H14.717V38.4499H17.615V39.4664H14.717V41.1784H17.936V42.1949H13.5935V35.8818ZM19.0446 35.8818H21.2381C21.5413 35.8818 21.8326 35.9116 22.112 35.971C22.3973 36.0245 22.65 36.1196 22.8699 36.2563C23.0899 36.3931 23.2652 36.5773 23.396 36.8092C23.5268 37.041 23.5922 37.3353 23.5922 37.692C23.5922 38.1497 23.4644 38.5331 23.2087 38.8422C22.9591 39.1513 22.5994 39.3386 22.1298 39.404L23.8062 42.1949H22.4508L20.9885 39.5199H20.1681V42.1949H19.0446V35.8818ZM21.042 38.5569C21.2025 38.5569 21.363 38.5509 21.5235 38.539C21.684 38.5212 21.8296 38.4855 21.9604 38.432C22.0971 38.3726 22.2071 38.2864 22.2903 38.1735C22.3735 38.0546 22.4151 37.8911 22.4151 37.683C22.4151 37.4988 22.3765 37.3501 22.2992 37.2372C22.2219 37.1242 22.1209 37.041 21.9961 36.9875C21.8712 36.9281 21.7315 36.8894 21.577 36.8716C21.4283 36.8538 21.2827 36.8449 21.14 36.8449H20.1681V38.5569H21.042ZM30.2698 41.7313C29.4911 42.1474 28.6202 42.3554 27.6572 42.3554C27.1697 42.3554 26.7209 42.2782 26.3107 42.1236C25.9065 41.9631 25.5558 41.7402 25.2586 41.4549C24.9673 41.1636 24.7384 40.8158 24.572 40.4116C24.4055 40.0074 24.3223 39.5585 24.3223 39.0651C24.3223 38.5599 24.4055 38.1021 24.572 37.692C24.7384 37.2758 24.9673 36.9221 25.2586 36.6308C25.5558 36.3396 25.9065 36.1166 26.3107 35.9621C26.7209 35.8016 27.1697 35.7213 27.6572 35.7213C28.1387 35.7213 28.5905 35.7808 29.0125 35.8997C29.4346 36.0126 29.8121 36.2177 30.145 36.5149L29.3157 37.3531C29.1136 37.1569 28.8669 37.0054 28.5756 36.8984C28.2903 36.7914 27.9871 36.7379 27.6661 36.7379C27.3392 36.7379 27.0419 36.7973 26.7744 36.9162C26.5129 37.0291 26.287 37.1896 26.0967 37.3977C25.9065 37.5998 25.7579 37.8376 25.6509 38.111C25.5498 38.3845 25.4993 38.6787 25.4993 38.9938C25.4993 39.3326 25.5498 39.6447 25.6509 39.9301C25.7579 40.2154 25.9065 40.4621 26.0967 40.6702C26.287 40.8782 26.5129 41.0417 26.7744 41.1606C27.0419 41.2795 27.3392 41.3389 27.6661 41.3389C27.9514 41.3389 28.2189 41.3122 28.4686 41.2587C28.7242 41.2052 28.9501 41.122 29.1463 41.009V39.5199H27.8534V38.5034H30.2698V41.7313ZM33.1439 39.4931L30.772 35.8818H32.1809L33.7324 38.3964L35.3018 35.8818H36.6393L34.2674 39.4931V42.1949H33.1439V39.4931ZM42.9504 37.2372C42.8316 37.0648 42.6711 36.94 42.4689 36.8627C42.2728 36.7795 42.0647 36.7379 41.8448 36.7379C41.714 36.7379 41.5862 36.7527 41.4613 36.7824C41.3424 36.8122 41.2325 36.8597 41.1314 36.9251C41.0363 36.9905 40.959 37.0767 40.8996 37.1837C40.8401 37.2847 40.8104 37.4066 40.8104 37.5493C40.8104 37.7633 40.8847 37.9268 41.0333 38.0397C41.1819 38.1527 41.3662 38.2507 41.5862 38.334C41.8061 38.4172 42.0469 38.4974 42.3084 38.5747C42.57 38.652 42.8107 38.759 43.0307 38.8957C43.2506 39.0324 43.4349 39.2138 43.5835 39.4396C43.7322 39.6655 43.8065 39.9657 43.8065 40.3402C43.8065 40.6791 43.744 40.9763 43.6192 41.2319C43.4944 41.4816 43.325 41.6897 43.1109 41.8561C42.9029 42.0226 42.6592 42.1474 42.3798 42.2306C42.1004 42.3138 41.8061 42.3554 41.497 42.3554C41.1047 42.3554 40.7272 42.2901 40.3646 42.1593C40.0019 42.0285 39.6899 41.8086 39.4283 41.4994L40.2754 40.6791C40.4121 40.8871 40.5905 41.0506 40.8104 41.1695C41.0363 41.2825 41.2741 41.3389 41.5238 41.3389C41.6545 41.3389 41.7853 41.3211 41.9161 41.2854C42.0469 41.2498 42.1658 41.1963 42.2728 41.1249C42.3798 41.0536 42.466 40.9644 42.5314 40.8574C42.5967 40.7445 42.6294 40.6167 42.6294 40.474C42.6294 40.2422 42.5551 40.0638 42.4065 39.939C42.2579 39.8142 42.0736 39.7101 41.8537 39.6269C41.6337 39.5377 41.393 39.4545 41.1314 39.3772C40.8699 39.3 40.6291 39.1959 40.4092 39.0651C40.1892 38.9284 40.0049 38.7501 39.8563 38.5301C39.7077 38.3042 39.6334 38.004 39.6334 37.6295C39.6334 37.3026 39.6988 37.0202 39.8296 36.7824C39.9663 36.5447 40.1416 36.3485 40.3556 36.1939C40.5756 36.0334 40.8253 35.9145 41.1047 35.8373C41.3841 35.76 41.6694 35.7213 41.9607 35.7213C42.2936 35.7213 42.6146 35.7719 42.9237 35.8729C43.2388 35.974 43.5211 36.1404 43.7708 36.3723L42.9504 37.2372ZM44.6377 39.0651C44.6377 38.5599 44.7209 38.1021 44.8873 37.692C45.0538 37.2758 45.2827 36.9221 45.5739 36.6308C45.8712 36.3396 46.2219 36.1166 46.6261 35.9621C47.0363 35.8016 47.4851 35.7213 47.9726 35.7213C48.466 35.7154 48.9177 35.7897 49.3279 35.9443C49.7381 36.0929 50.0918 36.3128 50.389 36.6041C50.6863 36.8954 50.9181 37.2461 51.0845 37.6563C51.251 38.0665 51.3342 38.5242 51.3342 39.0295C51.3342 39.5229 51.251 39.9717 51.0845 40.3759C50.9181 40.7801 50.6863 41.1279 50.389 41.4192C50.0918 41.7105 49.7381 41.9393 49.3279 42.1058C48.9177 42.2663 48.466 42.3495 47.9726 42.3554C47.4851 42.3554 47.0363 42.2782 46.6261 42.1236C46.2219 41.9631 45.8712 41.7402 45.5739 41.4549C45.2827 41.1636 45.0538 40.8158 44.8873 40.4116C44.7209 40.0074 44.6377 39.5585 44.6377 39.0651ZM45.8147 38.9938C45.8147 39.3326 45.8652 39.6447 45.9663 39.9301C46.0733 40.2154 46.2219 40.4621 46.4121 40.6702C46.6023 40.8782 46.8282 41.0417 47.0898 41.1606C47.3573 41.2795 47.6545 41.3389 47.9815 41.3389C48.3084 41.3389 48.6057 41.2795 48.8732 41.1606C49.1407 41.0417 49.3695 40.8782 49.5598 40.6702C49.75 40.4621 49.8956 40.2154 49.9967 39.9301C50.1037 39.6447 50.1572 39.3326 50.1572 38.9938C50.1572 38.6787 50.1037 38.3845 49.9967 38.111C49.8956 37.8376 49.75 37.5998 49.5598 37.3977C49.3695 37.1896 49.1407 37.0291 48.8732 36.9162C48.6057 36.7973 48.3084 36.7379 47.9815 36.7379C47.6545 36.7379 47.3573 36.7973 47.0898 36.9162C46.8282 37.0291 46.6023 37.1896 46.4121 37.3977C46.2219 37.5998 46.0733 37.8376 45.9663 38.111C45.8652 38.3845 45.8147 38.6787 45.8147 38.9938ZM52.4043 35.8818H53.5278V41.1784H56.2118V42.1949H52.4043V35.8818ZM62.084 39.8766C62.084 40.257 62.0186 40.6018 61.8878 40.9109C61.757 41.2141 61.5787 41.4727 61.3528 41.6867C61.1269 41.9007 60.8594 42.0671 60.5503 42.186C60.2412 42.299 59.9053 42.3554 59.5427 42.3554C59.1801 42.3554 58.8442 42.299 58.5351 42.186C58.226 42.0671 57.9555 41.9007 57.7237 41.6867C57.4978 41.4727 57.3194 41.2141 57.1887 40.9109C57.0638 40.6018 57.0014 40.257 57.0014 39.8766V35.8818H58.1249V39.8409C58.1249 39.9955 58.1487 40.1589 58.1963 40.3313C58.2438 40.4978 58.3211 40.6523 58.4281 40.795C58.541 40.9377 58.6867 41.0566 58.865 41.1517C59.0493 41.2408 59.2752 41.2854 59.5427 41.2854C59.8102 41.2854 60.0331 41.2408 60.2115 41.1517C60.3957 41.0566 60.5414 40.9377 60.6484 40.795C60.7613 40.6523 60.8416 40.4978 60.8891 40.3313C60.9367 40.1589 60.9605 39.9955 60.9605 39.8409V35.8818H62.084V39.8766ZM64.7562 36.8984H62.8212V35.8818H67.8147V36.8984H65.8797V42.1949H64.7562V36.8984ZM68.5567 35.8818H69.6802V42.1949H68.5567V35.8818ZM70.7263 39.0651C70.7263 38.5599 70.8096 38.1021 70.976 37.692C71.1425 37.2758 71.3713 36.9221 71.6626 36.6308C71.9598 36.3396 72.3106 36.1166 72.7148 35.9621C73.125 35.8016 73.5738 35.7213 74.0612 35.7213C74.5546 35.7154 75.0064 35.7897 75.4166 35.9443C75.8268 36.0929 76.1805 36.3128 76.4777 36.6041C76.7749 36.8954 77.0068 37.2461 77.1732 37.6563C77.3397 38.0665 77.4229 38.5242 77.4229 39.0295C77.4229 39.5229 77.3397 39.9717 77.1732 40.3759C77.0068 40.7801 76.7749 41.1279 76.4777 41.4192C76.1805 41.7105 75.8268 41.9393 75.4166 42.1058C75.0064 42.2663 74.5546 42.3495 74.0612 42.3554C73.5738 42.3554 73.125 42.2782 72.7148 42.1236C72.3106 41.9631 71.9598 41.7402 71.6626 41.4549C71.3713 41.1636 71.1425 40.8158 70.976 40.4116C70.8096 40.0074 70.7263 39.5585 70.7263 39.0651ZM71.9034 38.9938C71.9034 39.3326 71.9539 39.6447 72.055 39.9301C72.162 40.2154 72.3106 40.4621 72.5008 40.6702C72.691 40.8782 72.9169 41.0417 73.1785 41.1606C73.446 41.2795 73.7432 41.3389 74.0702 41.3389C74.3971 41.3389 74.6943 41.2795 74.9618 41.1606C75.2293 41.0417 75.4582 40.8782 75.6484 40.6702C75.8387 40.4621 75.9843 40.2154 76.0854 39.9301C76.1924 39.6447 76.2459 39.3326 76.2459 38.9938C76.2459 38.6787 76.1924 38.3845 76.0854 38.111C75.9843 37.8376 75.8387 37.5998 75.6484 37.3977C75.4582 37.1896 75.2293 37.0291 74.9618 36.9162C74.6943 36.7973 74.3971 36.7379 74.0702 36.7379C73.7432 36.7379 73.446 36.7973 73.1785 36.9162C72.9169 37.0291 72.691 37.1896 72.5008 37.3977C72.3106 37.5998 72.162 37.8376 72.055 38.111C71.9539 38.3845 71.9034 38.6787 71.9034 38.9938ZM78.493 35.8818H79.9821L83.0405 40.5721H83.0584V35.8818H84.1819V42.1949H82.7552L79.6343 37.3531H79.6165V42.1949H78.493V35.8818ZM88.684 37.2372C88.5651 37.0648 88.4046 36.94 88.2025 36.8627C88.0063 36.7795 87.7983 36.7379 87.5783 36.7379C87.4475 36.7379 87.3197 36.7527 87.1949 36.7824C87.076 36.8122 86.966 36.8597 86.865 36.9251C86.7698 36.9905 86.6926 37.0767 86.6331 37.1837C86.5737 37.2847 86.544 37.4066 86.544 37.5493C86.544 37.7633 86.6183 37.9268 86.7669 38.0397C86.9155 38.1527 87.0998 38.2507 87.3197 38.334C87.5397 38.4172 87.7804 38.4974 88.042 38.5747C88.3035 38.652 88.5443 38.759 88.7642 38.8957C88.9842 39.0324 89.1685 39.2138 89.3171 39.4396C89.4657 39.6655 89.54 39.9657 89.54 40.3402C89.54 40.6791 89.4776 40.9763 89.3527 41.2319C89.2279 41.4816 89.0585 41.6897 88.8445 41.8561C88.6364 42.0226 88.3927 42.1474 88.1133 42.2306C87.8339 42.3138 87.5397 42.3554 87.2305 42.3554C86.8382 42.3554 86.4607 42.2901 86.0981 42.1593C85.7355 42.0285 85.4234 41.8086 85.1618 41.4994L86.0089 40.6791C86.1457 40.8871 86.324 41.0506 86.544 41.1695C86.7698 41.2825 87.0076 41.3389 87.2573 41.3389C87.3881 41.3389 87.5189 41.3211 87.6496 41.2854C87.7804 41.2498 87.8993 41.1963 88.0063 41.1249C88.1133 41.0536 88.1995 40.9644 88.2649 40.8574C88.3303 40.7445 88.363 40.6167 88.363 40.474C88.363 40.2422 88.2887 40.0638 88.1401 39.939C87.9914 39.8142 87.8072 39.7101 87.5872 39.6269C87.3673 39.5377 87.1265 39.4545 86.865 39.3772C86.6034 39.3 86.3626 39.1959 86.1427 39.0651C85.9227 38.9284 85.7385 38.7501 85.5899 38.5301C85.4412 38.3042 85.3669 38.004 85.3669 37.6295C85.3669 37.3026 85.4323 37.0202 85.5631 36.7824C85.6998 36.5447 85.8752 36.3485 86.0892 36.1939C86.3091 36.0334 86.5588 35.9145 86.8382 35.8373C87.1176 35.76 87.4029 35.7213 87.6942 35.7213C88.0271 35.7213 88.3481 35.7719 88.6572 35.8729C88.9723 35.974 89.2547 36.1404 89.5043 36.3723L88.684 37.2372Z" fill="#181818"/>
</svg>
