<svg width="173" height="35" viewBox="0 0 173 35" fill="none" xmlns="http://www.w3.org/2000/svg">
<path d="M52.8312 20.419C52.0297 24.7437 49.0539 27.5903 44.6482 27.5903C39.6688 27.5903 35.8652 24.1853 35.8652 17.6622C35.8652 11.2266 39.2702 7.30701 44.7051 7.30701C49.4546 7.30701 52.4589 10.3398 52.8312 14.1718H48.8634C48.3181 12.0258 46.6299 10.7383 44.7423 10.7383C41.4578 10.7383 39.9075 13.2849 39.9075 17.4344C39.9075 21.6409 41.4534 24.1284 44.5431 24.1284C46.8883 24.1284 48.3181 22.7839 48.8634 20.4059L52.8312 20.419Z" fill="#1D1D1D"/>
<path d="M57.1227 20.8766C57.2365 22.9941 58.4365 24.367 60.2693 24.367C61.4714 24.367 62.5291 23.767 62.7875 22.7926H66.6195C65.7633 25.6831 63.4444 27.3144 60.4401 27.3144C55.7475 27.3144 53.4023 24.7393 53.4023 19.6504C53.4023 15.3016 55.892 12.4966 60.2124 12.4966C64.5327 12.4966 66.8187 15.2972 66.8187 20.8766H57.1227ZM62.9867 18.5293C62.9298 16.4425 61.5568 15.4396 60.0963 15.4396C58.6358 15.4396 57.3789 16.5848 57.2365 18.5293H62.9867Z" fill="#1D1D1D"/>
<path d="M77.1212 26.9334V18.4154C77.1212 16.241 76.4906 15.641 74.7125 15.641C72.7681 15.641 71.8221 16.7359 71.8221 18.873V26.9334H68.0996V12.8644H71.6469V14.925C72.5119 13.3571 73.944 12.4922 76.2037 12.4922C78.8949 12.4922 80.8678 14.1235 80.8678 17.1847V26.9334H77.1212Z" fill="#1D1D1D"/>
<path d="M90.4815 17.6709H93.9435V21.6781C93.9435 24.6539 92.2267 27.3144 88.2502 27.3144C84.1313 27.3144 82.5 24.6867 82.5 21.6496V9.06091H86.1612V12.8644H93.9435V15.4921H86.1612V21.273C86.1612 23.0466 86.7918 24.0758 88.3071 24.0758C89.8224 24.0758 90.4815 23.0751 90.4815 21.3299V17.6709Z" fill="#1D1D1D"/>
<path d="M95.4609 26.9334V12.8644H98.9513V14.5527C100.182 12.6652 101.612 12.4922 103.127 12.4922H103.607V16.2979C103.267 16.2411 102.922 16.2126 102.578 16.2125C100.289 16.2125 99.1725 17.3577 99.1725 19.6175V26.9334H95.4609Z" fill="#1D1D1D"/>
<path d="M104.729 11.1674V7.71423H108.451V11.1674H104.729ZM104.729 26.9334V12.8644H108.451V26.9334H104.729Z" fill="#1D1D1D"/>
<path d="M110.137 26.9334V7.71423H113.859V26.9334H110.137Z" fill="#1D1D1D"/>
<path d="M110.137 23.2218H121.611V26.9443H110.137V23.2218Z" fill="#1D1D1D"/>
<path d="M125.863 20.8766C125.979 22.9941 127.177 24.367 129.012 24.367C130.212 24.367 131.272 23.767 131.528 22.7926H135.358C134.499 25.6831 132.183 27.3144 129.178 27.3144C124.486 27.3144 122.141 24.7393 122.141 19.6504C122.141 15.3016 124.63 12.4966 128.951 12.4966C133.271 12.4966 135.559 15.3016 135.559 20.881L125.863 20.8766ZM131.729 18.5293C131.672 16.4425 130.299 15.4396 128.839 15.4396C127.378 15.4396 126.122 16.5848 125.979 18.5293H131.729Z" fill="#1D1D1D"/>
<path d="M145.661 26.9333C145.54 26.5233 145.467 26.1009 145.442 25.6742C144.566 26.6465 143.068 27.3056 141.181 27.3056C137.975 27.3056 136.488 25.7312 136.488 23.4429C136.488 19.3788 139.206 18.9212 142.955 18.4066C144.814 18.1504 145.328 17.7781 145.328 16.8037C145.328 15.8884 144.413 15.3454 142.955 15.3454C141.266 15.3454 140.579 16.1753 140.408 17.4343H136.935C136.992 14.5155 138.595 12.4834 143.114 12.4834C147.577 12.4834 149.123 14.487 149.123 18.0343V26.9333H145.661ZM145.403 20.0379C145.033 20.4102 144.373 20.6094 142.994 20.8678C140.876 21.2685 140.189 21.8685 140.189 23.0707C140.189 24.1283 140.82 24.6451 141.991 24.6451C143.909 24.6451 145.339 23.2415 145.368 21.5795L145.403 20.0379Z" fill="#1D1D1D"/>
<path d="M150.756 26.9334V12.8644H154.246V14.5527C155.475 12.6652 156.907 12.4922 158.422 12.4922H158.908V16.2979C158.568 16.2411 158.224 16.2126 157.879 16.2125C155.591 16.2125 154.474 17.3577 154.474 19.6175V26.9334H150.756Z" fill="#1D1D1D"/>
<path d="M168.951 26.9334V18.4154C168.951 16.241 168.321 15.641 166.543 15.641C164.598 15.641 163.652 16.7359 163.652 18.873V26.9334H159.93V12.8644H163.477V14.925C164.335 13.3506 165.765 12.4922 168.025 12.4922C170.716 12.4922 172.689 14.1235 172.689 17.1847V26.9334H168.951Z" fill="#1D1D1D"/>
<path d="M28.9937 8.25523L15.3036 0L0.689453 9.54497V9.60409L13.7292 17.4608L28.9937 8.25523Z" fill="#11C1F6"/>
<path d="M0.689453 25.3174V9.604V25.37L15.297 34.9149L28.985 26.6575L13.7292 17.4607L0.689453 25.3174Z" fill="#FFAF29"/>
<path d="M13.7292 17.4607L0.689453 9.604V25.3174L13.7292 17.4607Z" fill="#162BA5"/>
</svg>
