<svg width="173" height="35" viewBox="0 0 173 35" fill="none" xmlns="http://www.w3.org/2000/svg">
<path d="M52.609 20.4191C51.8075 24.7438 48.8317 27.5905 44.426 27.5905C39.4466 27.5905 35.643 24.1855 35.643 17.6623C35.643 11.2267 39.048 7.30713 44.4829 7.30713C49.2324 7.30713 52.2367 10.3399 52.609 14.1719H48.6412C48.096 12.026 46.4077 10.7384 44.5201 10.7384C41.2356 10.7384 39.6853 13.2851 39.6853 17.4346C39.6853 21.641 41.2312 24.1285 44.3209 24.1285C46.6661 24.1285 48.096 22.784 48.6412 20.406L52.609 20.4191Z" fill="white"/>
<path d="M56.9008 20.8766C57.0147 22.9941 58.2147 24.367 60.0474 24.367C61.2496 24.367 62.3072 23.767 62.5656 22.7926H66.3976C65.5414 25.6831 63.2225 27.3144 60.2182 27.3144C55.5257 27.3144 53.1805 24.7393 53.1805 19.6504C53.1805 15.3016 55.6702 12.4966 59.9905 12.4966C64.3108 12.4966 66.5969 15.2972 66.5969 20.8766H56.9008ZM62.7649 18.5293C62.708 16.4425 61.335 15.4396 59.8745 15.4396C58.4139 15.4396 57.157 16.5848 57.0147 18.5293H62.7649Z" fill="white"/>
<path d="M76.8995 26.9334V18.4154C76.8995 16.241 76.2689 15.641 74.4908 15.641C72.5464 15.641 71.6004 16.7359 71.6004 18.873V26.9334H67.8779V12.8644H71.4252V14.925C72.2902 13.3571 73.7222 12.4922 75.982 12.4922C78.6732 12.4922 80.6461 14.1235 80.6461 17.1847V26.9334H76.8995Z" fill="white"/>
<path d="M90.2589 17.671H93.7209V21.6782C93.7209 24.654 92.0041 27.3145 88.0276 27.3145C83.9088 27.3145 82.2774 24.6868 82.2774 21.6497V9.06104H85.9386V12.8646H93.7209V15.4922H85.9386V21.2731C85.9386 23.0468 86.5693 24.0759 88.0846 24.0759C89.5998 24.0759 90.2589 23.0752 90.2589 21.33V17.671Z" fill="white"/>
<path d="M95.2384 26.9334V12.8644H98.7288V14.5527C99.9594 12.6652 101.389 12.4922 102.905 12.4922H103.384V16.2979C103.044 16.2411 102.7 16.2126 102.355 16.2125C100.067 16.2125 98.95 17.3577 98.95 19.6175V26.9334H95.2384Z" fill="white"/>
<path d="M104.507 11.1675V7.71436H108.23V11.1675H104.507ZM104.507 26.9335V12.8646H108.23V26.9335H104.507Z" fill="white"/>
<path d="M109.914 26.9335V7.71436H113.636V26.9335H109.914Z" fill="white"/>
<path d="M109.914 23.2217H121.388V26.9442H109.914V23.2217Z" fill="white"/>
<path d="M125.64 20.8766C125.756 22.9941 126.954 24.367 128.789 24.367C129.989 24.367 131.049 23.767 131.305 22.7926H135.135C134.277 25.6831 131.96 27.3144 128.956 27.3144C124.263 27.3144 121.918 24.7393 121.918 19.6504C121.918 15.3016 124.408 12.4966 128.728 12.4966C133.048 12.4966 135.336 15.3016 135.336 20.881L125.64 20.8766ZM131.507 18.5293C131.45 16.4425 130.077 15.4396 128.616 15.4396C127.156 15.4396 125.899 16.5848 125.756 18.5293H131.507Z" fill="white"/>
<path d="M145.44 26.9333C145.319 26.5233 145.246 26.1009 145.221 25.6742C144.345 26.6465 142.847 27.3056 140.96 27.3056C137.754 27.3056 136.267 25.7312 136.267 23.4429C136.267 19.3788 138.985 18.9212 142.733 18.4066C144.592 18.1504 145.107 17.7781 145.107 16.8037C145.107 15.8884 144.192 15.3454 142.733 15.3454C141.045 15.3454 140.357 16.1753 140.187 17.4343H136.714C136.771 14.5155 138.374 12.4834 142.893 12.4834C147.356 12.4834 148.902 14.487 148.902 18.0343V26.9333H145.44ZM145.181 20.0379C144.811 20.4102 144.152 20.6094 142.773 20.8678C140.655 21.2685 139.968 21.8685 139.968 23.0707C139.968 24.1283 140.598 24.6451 141.77 24.6451C143.688 24.6451 145.118 23.2415 145.146 21.5795L145.181 20.0379Z" fill="white"/>
<path d="M150.533 26.9334V12.8644H154.023V14.5527C155.252 12.6652 156.684 12.4922 158.199 12.4922H158.685V16.2979C158.345 16.2411 158.001 16.2126 157.656 16.2125C155.368 16.2125 154.251 17.3577 154.251 19.6175V26.9334H150.533Z" fill="white"/>
<path d="M168.73 26.9334V18.4154C168.73 16.241 168.099 15.641 166.321 15.641C164.376 15.641 163.431 16.7359 163.431 18.873V26.9334H159.708V12.8644H163.255V14.925C164.114 13.3506 165.544 12.4922 167.803 12.4922C170.495 12.4922 172.467 14.1235 172.467 17.1847V26.9334H168.73Z" fill="white"/>
<path d="M28.7717 8.25523L15.0816 0L0.467468 9.54497V9.60409L13.5072 17.4608L28.7717 8.25523Z" fill="#11C1F6"/>
<path d="M0.467468 25.3174V9.604V25.37L15.0751 34.9149L28.763 26.6575L13.5072 17.4607L0.467468 25.3174Z" fill="#FFAF29"/>
<path d="M13.5072 17.4607L0.467468 9.604V25.3174L13.5072 17.4607Z" fill="#162BA5"/>
</svg>
