<svg width="29" height="29" viewBox="0 0 29 29" fill="none" xmlns="http://www.w3.org/2000/svg">
<path d="M8.98523 22.4407H20.6806" stroke="#02775C" stroke-width="1.7543" stroke-linecap="round" stroke-linejoin="round"/>
<path d="M23.0197 18.9321C23.9281 18.9595 24.4699 19.061 24.8449 19.4365C25.3587 19.9511 25.3587 20.7793 25.3587 22.4357C25.3587 24.092 25.3587 24.9202 24.8449 25.4348C24.3311 25.9493 23.5041 25.9493 21.8501 25.9493H7.81573C6.16176 25.9493 5.33477 25.9493 4.82095 25.4348C4.30713 24.9202 4.30713 24.092 4.30713 22.4357C4.30713 20.7793 4.30713 19.9511 4.82095 19.4365C5.19596 19.061 5.73779 18.9595 6.64619 18.9321" stroke="#02775C" stroke-width="1.7543" stroke-linecap="round" stroke-linejoin="round"/>
<path d="M17.5404 22.4405C18.3903 21.7058 18.9262 20.6308 18.9262 19.4332C18.9262 17.2186 17.0936 15.4233 14.8329 15.4233C12.5722 15.4233 10.7395 17.2186 10.7395 19.4332C10.7395 20.6308 11.2755 21.7058 12.1253 22.4405" stroke="#02775C" stroke-width="1.7543" stroke-linecap="round"/>
<path d="M24.1892 11.9148L21.3884 11.9148C21.0444 11.9148 20.7051 11.8373 20.3974 11.6884L18.0092 10.5329C17.7015 10.384 17.3622 10.3065 17.0182 10.3065L15.7988 10.3065C14.6195 10.3065 13.6634 9.38137 13.6634 8.24013C13.6634 8.194 13.695 8.15346 13.7409 8.14078L16.7125 7.31917C17.2456 7.17178 17.8164 7.22312 18.3123 7.46305L20.8653 8.69828M13.6634 8.99096L8.29202 10.6413C7.33979 10.938 6.31047 10.5862 5.71398 9.76017C5.2827 9.16295 5.4583 8.30774 6.08664 7.9452L14.8764 2.87369C15.4354 2.55113 16.0949 2.47243 16.7099 2.65489L24.1892 4.87427" stroke="#02775C" stroke-width="1.7543" stroke-linecap="round" stroke-linejoin="round"/>
</svg>
