<svg width="150" height="30" viewBox="0 0 150 30" fill="none" xmlns="http://www.w3.org/2000/svg">
<path d="M10.3891 28.8953C6.88277 28.8953 3.99215 26.4864 2.40454 24.1279C-1.06063 18.9762 -0.750981 11.633 3.14196 6.66648C6.27422 2.67623 11.4926 0.32034 16.8031 0.510724C23.149 0.742837 26.2177 4.01588 27.0303 5.91363C27.7221 7.52886 27.536 9.39793 26.5569 10.6741C25.8329 11.6182 24.6722 12.2885 23.2877 12.5614C21.8612 12.8422 20.1877 12.5666 18.5688 12.3006C14.9729 11.7086 13.1813 11.6443 12.2864 13.6046C11.3279 15.7076 13.0757 17.2506 15.6513 19.1997C15.9806 19.45 16.2992 19.6908 16.5901 19.9238C17.0894 20.3237 17.5867 20.7256 18.0819 21.1296L18.3996 21.3904C18.8408 20.8844 19.2677 20.3794 19.6785 19.8934C20.4732 18.9519 21.2249 18.0678 21.9328 17.3332C22.2084 17.0498 22.4877 16.7542 22.7705 16.4526C24.9612 14.1297 27.6854 11.2366 31.5336 11.2366H31.5712C33.3799 11.2453 35.0373 12.0129 36.0029 13.2899C37.765 15.6198 37.1896 18.6346 34.2927 22.2519C34.0734 22.5257 33.8354 22.8387 33.5767 23.1743C31.8826 25.3972 29.5621 28.4398 26.7028 28.7102C25.4642 28.8249 24.1469 28.4024 22.6854 27.4114C21.8666 26.8559 21.2535 26.3552 20.6647 25.8709C20.3389 25.6041 20.032 25.3493 19.7008 25.1007C19.3429 24.8286 18.9849 24.5504 18.6323 24.2714C16.4308 26.5847 13.9017 28.6224 11.0388 28.8658C10.8231 28.8867 10.6039 28.8953 10.3891 28.8953ZM16.2178 2.57626C11.8326 2.57626 7.41615 4.64093 4.84233 7.9244C1.47829 12.2146 1.20623 18.5511 4.19351 22.9917C5.54037 24.9912 7.99785 27.0428 10.8536 26.8003C12.9951 26.6177 15.0875 24.9277 16.9847 22.9465L16.71 22.7231C16.2187 22.3241 15.7256 21.9242 15.2325 21.5286C14.9541 21.3069 14.6517 21.0774 14.3375 20.8392C12.0626 19.1162 8.6252 16.5126 10.3336 12.7657C11.9991 9.11453 15.8401 9.74653 18.9249 10.2534C20.4159 10.4994 21.8254 10.7315 22.8626 10.5272C23.7307 10.3533 24.4341 9.96821 24.8431 9.43444C25.3801 8.73289 25.4696 7.66361 25.0579 6.71081C23.9661 4.1628 20.0382 2.70666 16.7225 2.58582C16.5507 2.57974 16.386 2.57626 16.2178 2.57626ZM20.0463 22.7126C20.3697 22.9682 20.6939 23.2198 21.0191 23.4672C21.3815 23.7428 21.7189 24.0193 22.0447 24.2861C22.5986 24.7408 23.1714 25.2094 23.9106 25.711C24.9371 26.4064 25.7899 26.7168 26.4978 26.6455C28.4112 26.4647 30.4874 23.7419 31.8612 21.9407C32.1296 21.5929 32.3775 21.2643 32.6057 20.9792C34.8762 18.1443 35.4239 16.0327 34.281 14.5209C33.7217 13.782 32.68 13.3195 31.5605 13.3143H31.5336C28.626 13.3143 26.4513 15.6215 24.3464 17.8539C24.0565 18.1626 23.7701 18.4625 23.4882 18.7563C22.8304 19.4344 22.101 20.2968 21.3296 21.2096C20.9171 21.6981 20.4884 22.2041 20.0463 22.7126Z" fill="url(#paint0_linear_3118_866)"/>
<path d="M65.4148 11.7216H62.7557C62.6534 11.1534 62.4631 10.6534 62.1847 10.2216C61.9063 9.78977 61.5653 9.4233 61.1619 9.12216C60.7585 8.82102 60.3068 8.59375 59.8068 8.44034C59.3125 8.28693 58.7869 8.21023 58.2301 8.21023C57.2244 8.21023 56.3239 8.46307 55.5284 8.96875C54.7386 9.47443 54.1136 10.2159 53.6534 11.1932C53.1989 12.1705 52.9716 13.3636 52.9716 14.7727C52.9716 16.1932 53.1989 17.392 53.6534 18.3693C54.1136 19.3466 54.7415 20.0852 55.5369 20.5852C56.3324 21.0852 57.2273 21.3352 58.2216 21.3352C58.7727 21.3352 59.2955 21.2614 59.7898 21.1136C60.2898 20.9602 60.7415 20.7358 61.1449 20.4403C61.5483 20.1449 61.8892 19.7841 62.1676 19.358C62.4517 18.9261 62.6477 18.4318 62.7557 17.875L65.4148 17.8835C65.2727 18.7415 64.9972 19.5312 64.5881 20.2528C64.1847 20.9688 63.6648 21.5881 63.0284 22.1108C62.3977 22.6278 61.6761 23.0284 60.8636 23.3125C60.0511 23.5966 59.1648 23.7386 58.2045 23.7386C56.6932 23.7386 55.3466 23.3807 54.1648 22.6648C52.983 21.9432 52.0511 20.9119 51.3693 19.571C50.6932 18.2301 50.3551 16.6307 50.3551 14.7727C50.3551 12.9091 50.696 11.3097 51.3778 9.97443C52.0597 8.63352 52.9915 7.60511 54.1733 6.8892C55.3551 6.16761 56.6989 5.80682 58.2045 5.80682C59.1307 5.80682 59.9943 5.94034 60.7955 6.20739C61.6023 6.46875 62.3267 6.85511 62.9688 7.36648C63.6108 7.87216 64.142 8.49148 64.5625 9.22443C64.983 9.9517 65.267 10.7841 65.4148 11.7216ZM70.9098 6.04545V23.5H68.3615V6.04545H70.9098ZM79.9801 23.7642C78.6903 23.7642 77.5795 23.4886 76.6477 22.9375C75.7216 22.3807 75.0057 21.5994 74.5 20.5938C74 19.5824 73.75 18.3977 73.75 17.0398C73.75 15.6989 74 14.517 74.5 13.4943C75.0057 12.4716 75.7102 11.6733 76.6136 11.0994C77.5227 10.5256 78.5852 10.2386 79.8011 10.2386C80.5398 10.2386 81.2557 10.3608 81.9489 10.6051C82.642 10.8494 83.2642 11.233 83.8153 11.7557C84.3665 12.2784 84.8011 12.9574 85.1193 13.7926C85.4375 14.6222 85.5966 15.6307 85.5966 16.8182V17.7216H75.1903V15.8125H83.0994C83.0994 15.142 82.9631 14.5483 82.6903 14.0312C82.4176 13.5085 82.0341 13.0966 81.5398 12.7955C81.0511 12.4943 80.4773 12.3438 79.8182 12.3438C79.1023 12.3438 78.4773 12.5199 77.9432 12.8722C77.4148 13.2187 77.0057 13.6733 76.7159 14.2358C76.4318 14.7926 76.2898 15.3977 76.2898 16.0511V17.5426C76.2898 18.4176 76.4432 19.1619 76.75 19.7756C77.0625 20.3892 77.4972 20.858 78.054 21.1818C78.6108 21.5 79.2614 21.6591 80.0057 21.6591C80.4886 21.6591 80.929 21.5909 81.3267 21.4545C81.7244 21.3125 82.0682 21.1023 82.358 20.8239C82.6477 20.5455 82.8693 20.2017 83.0227 19.7926L85.4347 20.2273C85.2415 20.9375 84.8949 21.5597 84.3949 22.0938C83.9006 22.6222 83.2784 23.0341 82.5284 23.3295C81.7841 23.6193 80.9347 23.7642 79.9801 23.7642ZM92.2337 23.7898C91.4041 23.7898 90.6541 23.6364 89.9837 23.3295C89.3132 23.017 88.782 22.5653 88.3899 21.9744C88.0036 21.3835 87.8104 20.6591 87.8104 19.8011C87.8104 19.0625 87.9524 18.4545 88.2365 17.9773C88.5206 17.5 88.9041 17.1222 89.3871 16.8438C89.87 16.5653 90.4098 16.3551 91.0064 16.2131C91.603 16.071 92.2109 15.9631 92.8303 15.8892C93.6143 15.7983 94.2507 15.7244 94.7393 15.6676C95.228 15.6051 95.5831 15.5057 95.8047 15.3693C96.0263 15.233 96.1371 15.0114 96.1371 14.7045V14.6449C96.1371 13.9006 95.9268 13.3239 95.5064 12.9148C95.0916 12.5057 94.4723 12.3011 93.6484 12.3011C92.7905 12.3011 92.1143 12.4915 91.62 12.8722C91.1314 13.2472 90.7933 13.6648 90.6058 14.125L88.2109 13.5795C88.495 12.7841 88.9098 12.142 89.4553 11.6534C90.0064 11.1591 90.6399 10.8011 91.3558 10.5795C92.0717 10.3523 92.8246 10.2386 93.6143 10.2386C94.1371 10.2386 94.6911 10.3011 95.2763 10.4261C95.8672 10.5455 96.4183 10.767 96.9297 11.0909C97.4467 11.4148 97.87 11.8778 98.1996 12.4801C98.5291 13.0767 98.6939 13.8523 98.6939 14.8068V23.5H96.2053V21.7102H96.103C95.9382 22.0398 95.6911 22.3636 95.3615 22.6818C95.032 23 94.6087 23.2642 94.0916 23.4744C93.5746 23.6847 92.9553 23.7898 92.2337 23.7898ZM92.7876 21.7443C93.4922 21.7443 94.0945 21.6051 94.5945 21.3267C95.1001 21.0483 95.4837 20.6847 95.745 20.2358C96.0121 19.7812 96.1456 19.2955 96.1456 18.7784V17.0909C96.0547 17.1818 95.8786 17.267 95.6172 17.3466C95.3615 17.4205 95.0689 17.4858 94.7393 17.5426C94.4098 17.5937 94.0888 17.642 93.7763 17.6875C93.4638 17.7273 93.2024 17.7614 92.9922 17.7898C92.4979 17.8523 92.0462 17.9574 91.6371 18.1051C91.2337 18.2528 90.9098 18.4659 90.6655 18.7443C90.4268 19.017 90.3075 19.3807 90.3075 19.8352C90.3075 20.4659 90.5405 20.9432 91.0064 21.267C91.4723 21.5852 92.0661 21.7443 92.7876 21.7443ZM102.088 23.5V10.4091H104.551V12.4886H104.688C104.926 11.7841 105.347 11.2301 105.949 10.8267C106.557 10.4176 107.244 10.2131 108.011 10.2131C108.17 10.2131 108.358 10.2187 108.574 10.2301C108.795 10.2415 108.969 10.2557 109.094 10.2727V12.7102C108.991 12.6818 108.81 12.6506 108.548 12.6165C108.287 12.5767 108.026 12.5568 107.764 12.5568C107.162 12.5568 106.625 12.6847 106.153 12.9403C105.688 13.1903 105.318 13.5398 105.045 13.9886C104.773 14.4318 104.636 14.9375 104.636 15.5057V23.5H102.088ZM113.847 6.04545V23.5H111.299V6.04545H113.847ZM117.276 23.5V10.4091H119.824V23.5H117.276ZM118.562 8.3892C118.119 8.3892 117.739 8.24148 117.42 7.94602C117.108 7.64489 116.952 7.28693 116.952 6.87216C116.952 6.4517 117.108 6.09375 117.42 5.79829C117.739 5.49716 118.119 5.34659 118.562 5.34659C119.006 5.34659 119.384 5.49716 119.696 5.79829C120.014 6.09375 120.173 6.4517 120.173 6.87216C120.173 7.28693 120.014 7.64489 119.696 7.94602C119.384 8.24148 119.006 8.3892 118.562 8.3892ZM125.8 15.7273V23.5H123.252V10.4091H125.698V12.5398H125.86C126.161 11.8466 126.633 11.2898 127.275 10.8693C127.923 10.4489 128.738 10.2386 129.721 10.2386C130.613 10.2386 131.394 10.4261 132.065 10.8011C132.735 11.1705 133.255 11.7216 133.624 12.4545C133.994 13.1875 134.178 14.0937 134.178 15.1733V23.5H131.63V15.4801C131.63 14.5312 131.383 13.7898 130.888 13.2557C130.394 12.7159 129.715 12.446 128.852 12.446C128.261 12.446 127.735 12.5739 127.275 12.8295C126.82 13.0852 126.46 13.4602 126.192 13.9545C125.931 14.4432 125.8 15.0341 125.8 15.7273ZM143.238 23.7642C141.948 23.7642 140.837 23.4886 139.906 22.9375C138.979 22.3807 138.263 21.5994 137.758 20.5938C137.258 19.5824 137.008 18.3977 137.008 17.0398C137.008 15.6989 137.258 14.517 137.758 13.4943C138.263 12.4716 138.968 11.6733 139.871 11.0994C140.781 10.5256 141.843 10.2386 143.059 10.2386C143.798 10.2386 144.513 10.3608 145.207 10.6051C145.9 10.8494 146.522 11.233 147.073 11.7557C147.624 12.2784 148.059 12.9574 148.377 13.7926C148.695 14.6222 148.854 15.6307 148.854 16.8182V17.7216H138.448V15.8125H146.357C146.357 15.142 146.221 14.5483 145.948 14.0312C145.675 13.5085 145.292 13.0966 144.798 12.7955C144.309 12.4943 143.735 12.3438 143.076 12.3438C142.36 12.3438 141.735 12.5199 141.201 12.8722C140.673 13.2187 140.263 13.6733 139.974 14.2358C139.69 14.7926 139.548 15.3977 139.548 16.0511V17.5426C139.548 18.4176 139.701 19.1619 140.008 19.7756C140.32 20.3892 140.755 20.858 141.312 21.1818C141.869 21.5 142.519 21.6591 143.263 21.6591C143.746 21.6591 144.187 21.5909 144.585 21.4545C144.982 21.3125 145.326 21.1023 145.616 20.8239C145.906 20.5455 146.127 20.2017 146.281 19.7926L148.692 20.2273C148.499 20.9375 148.153 21.5597 147.653 22.0938C147.158 22.6222 146.536 23.0341 145.786 23.3295C145.042 23.6193 144.192 23.7642 143.238 23.7642Z" fill="#181818"/>
<defs>
<linearGradient id="paint0_linear_3118_866" x1="-8.16547" y1="1.65998" x2="23.1164" y2="20.8776" gradientUnits="userSpaceOnUse">
<stop offset="0.02" stop-color="#C0C5C8"/>
<stop offset="1" stop-color="#6F767E"/>
</linearGradient>
</defs>
</svg>
