<svg width="150" height="29" viewBox="0 0 150 29" fill="none" xmlns="http://www.w3.org/2000/svg">
<path d="M10.3891 28.3953C6.88277 28.3953 3.99215 25.9864 2.40454 23.6279C-1.06063 18.4762 -0.750981 11.133 3.14196 6.16648C6.27422 2.17623 11.4926 -0.17966 16.8031 0.0107243C23.149 0.242837 26.2177 3.51588 27.0303 5.41363C27.7221 7.02886 27.536 8.89793 26.5569 10.1741C25.8329 11.1182 24.6722 11.7885 23.2877 12.0614C21.8612 12.3422 20.1877 12.0666 18.5688 11.8006C14.9729 11.2086 13.1813 11.1443 12.2864 13.1046C11.3279 15.2076 13.0757 16.7506 15.6513 18.6997C15.9806 18.95 16.2992 19.1908 16.5901 19.4238C17.0894 19.8237 17.5867 20.2256 18.0819 20.6296L18.3996 20.8904C18.8408 20.3844 19.2677 19.8794 19.6785 19.3934C20.4732 18.4519 21.2249 17.5678 21.9328 16.8332C22.2084 16.5498 22.4877 16.2542 22.7705 15.9526C24.9612 13.6297 27.6854 10.7366 31.5336 10.7366H31.5712C33.3799 10.7453 35.0373 11.5129 36.0029 12.7899C37.765 15.1198 37.1896 18.1346 34.2927 21.7519C34.0734 22.0257 33.8354 22.3387 33.5767 22.6743C31.8826 24.8972 29.5621 27.9398 26.7028 28.2102C25.4642 28.3249 24.1469 27.9024 22.6854 26.9114C21.8666 26.3559 21.2535 25.8552 20.6647 25.3709C20.3389 25.1041 20.032 24.8493 19.7008 24.6007C19.3429 24.3286 18.9849 24.0504 18.6323 23.7714C16.4308 26.0847 13.9017 28.1224 11.0388 28.3658C10.8231 28.3867 10.6039 28.3953 10.3891 28.3953ZM16.2178 2.07626C11.8326 2.07626 7.41615 4.14093 4.84233 7.4244C1.47829 11.7146 1.20623 18.0511 4.19351 22.4917C5.54037 24.4912 7.99785 26.5428 10.8536 26.3003C12.9951 26.1177 15.0875 24.4277 16.9847 22.4465L16.71 22.2231C16.2187 21.8241 15.7256 21.4242 15.2325 21.0286C14.9541 20.8069 14.6517 20.5774 14.3375 20.3392C12.0626 18.6162 8.6252 16.0126 10.3336 12.2657C11.9991 8.61453 15.8401 9.24653 18.9249 9.75335C20.4159 9.99937 21.8254 10.2315 22.8626 10.0272C23.7307 9.85332 24.4341 9.46821 24.8431 8.93444C25.3801 8.23289 25.4696 7.16361 25.0579 6.21081C23.9661 3.6628 20.0382 2.20666 16.7225 2.08582C16.5507 2.07974 16.386 2.07626 16.2178 2.07626ZM20.0463 22.2126C20.3697 22.4682 20.6939 22.7198 21.0191 22.9672C21.3815 23.2428 21.7189 23.5193 22.0447 23.7861C22.5986 24.2408 23.1714 24.7094 23.9106 25.211C24.9371 25.9064 25.7899 26.2168 26.4978 26.1455C28.4112 25.9647 30.4874 23.2419 31.8612 21.4407C32.1296 21.0929 32.3775 20.7643 32.6057 20.4792C34.8762 17.6443 35.4239 15.5327 34.281 14.0209C33.7217 13.282 32.68 12.8195 31.5605 12.8143H31.5336C28.626 12.8143 26.4513 15.1215 24.3464 17.3539C24.0565 17.6626 23.7701 17.9625 23.4882 18.2563C22.8304 18.9344 22.101 19.7968 21.3296 20.7096C20.9171 21.1981 20.4884 21.7041 20.0463 22.2126Z" fill="url(#paint0_linear_1355_1895)"/>
<path d="M65.4148 11.2216H62.7557C62.6534 10.6534 62.4631 10.1534 62.1847 9.72159C61.9063 9.28977 61.5653 8.9233 61.1619 8.62216C60.7585 8.32102 60.3068 8.09375 59.8068 7.94034C59.3125 7.78693 58.7869 7.71023 58.2301 7.71023C57.2244 7.71023 56.3239 7.96307 55.5284 8.46875C54.7386 8.97443 54.1136 9.71591 53.6534 10.6932C53.1989 11.6705 52.9716 12.8636 52.9716 14.2727C52.9716 15.6932 53.1989 16.892 53.6534 17.8693C54.1136 18.8466 54.7415 19.5852 55.5369 20.0852C56.3324 20.5852 57.2273 20.8352 58.2216 20.8352C58.7727 20.8352 59.2955 20.7614 59.7898 20.6136C60.2898 20.4602 60.7415 20.2358 61.1449 19.9403C61.5483 19.6449 61.8892 19.2841 62.1676 18.858C62.4517 18.4261 62.6477 17.9318 62.7557 17.375L65.4148 17.3835C65.2727 18.2415 64.9972 19.0312 64.5881 19.7528C64.1847 20.4688 63.6648 21.0881 63.0284 21.6108C62.3977 22.1278 61.6761 22.5284 60.8636 22.8125C60.0511 23.0966 59.1648 23.2386 58.2045 23.2386C56.6932 23.2386 55.3466 22.8807 54.1648 22.1648C52.983 21.4432 52.0511 20.4119 51.3693 19.071C50.6932 17.7301 50.3551 16.1307 50.3551 14.2727C50.3551 12.4091 50.696 10.8097 51.3778 9.47443C52.0597 8.13352 52.9915 7.10511 54.1733 6.3892C55.3551 5.66761 56.6989 5.30682 58.2045 5.30682C59.1307 5.30682 59.9943 5.44034 60.7955 5.70739C61.6023 5.96875 62.3267 6.35511 62.9688 6.86648C63.6108 7.37216 64.142 7.99148 64.5625 8.72443C64.983 9.4517 65.267 10.2841 65.4148 11.2216ZM70.9098 5.54545V23H68.3615V5.54545H70.9098ZM79.9801 23.2642C78.6903 23.2642 77.5795 22.9886 76.6477 22.4375C75.7216 21.8807 75.0057 21.0994 74.5 20.0938C74 19.0824 73.75 17.8977 73.75 16.5398C73.75 15.1989 74 14.017 74.5 12.9943C75.0057 11.9716 75.7102 11.1733 76.6136 10.5994C77.5227 10.0256 78.5852 9.73864 79.8011 9.73864C80.5398 9.73864 81.2557 9.8608 81.9489 10.1051C82.642 10.3494 83.2642 10.733 83.8153 11.2557C84.3665 11.7784 84.8011 12.4574 85.1193 13.2926C85.4375 14.1222 85.5966 15.1307 85.5966 16.3182V17.2216H75.1903V15.3125H83.0994C83.0994 14.642 82.9631 14.0483 82.6903 13.5312C82.4176 13.0085 82.0341 12.5966 81.5398 12.2955C81.0511 11.9943 80.4773 11.8438 79.8182 11.8438C79.1023 11.8438 78.4773 12.0199 77.9432 12.3722C77.4148 12.7187 77.0057 13.1733 76.7159 13.7358C76.4318 14.2926 76.2898 14.8977 76.2898 15.5511V17.0426C76.2898 17.9176 76.4432 18.6619 76.75 19.2756C77.0625 19.8892 77.4972 20.358 78.054 20.6818C78.6108 21 79.2614 21.1591 80.0057 21.1591C80.4886 21.1591 80.929 21.0909 81.3267 20.9545C81.7244 20.8125 82.0682 20.6023 82.358 20.3239C82.6477 20.0455 82.8693 19.7017 83.0227 19.2926L85.4347 19.7273C85.2415 20.4375 84.8949 21.0597 84.3949 21.5938C83.9006 22.1222 83.2784 22.5341 82.5284 22.8295C81.7841 23.1193 80.9347 23.2642 79.9801 23.2642ZM92.2337 23.2898C91.4041 23.2898 90.6541 23.1364 89.9837 22.8295C89.3132 22.517 88.782 22.0653 88.3899 21.4744C88.0036 20.8835 87.8104 20.1591 87.8104 19.3011C87.8104 18.5625 87.9524 17.9545 88.2365 17.4773C88.5206 17 88.9041 16.6222 89.3871 16.3438C89.87 16.0653 90.4098 15.8551 91.0064 15.7131C91.603 15.571 92.2109 15.4631 92.8303 15.3892C93.6143 15.2983 94.2507 15.2244 94.7393 15.1676C95.228 15.1051 95.5831 15.0057 95.8047 14.8693C96.0263 14.733 96.1371 14.5114 96.1371 14.2045V14.1449C96.1371 13.4006 95.9268 12.8239 95.5064 12.4148C95.0916 12.0057 94.4723 11.8011 93.6484 11.8011C92.7905 11.8011 92.1143 11.9915 91.62 12.3722C91.1314 12.7472 90.7933 13.1648 90.6058 13.625L88.2109 13.0795C88.495 12.2841 88.9098 11.642 89.4553 11.1534C90.0064 10.6591 90.6399 10.3011 91.3558 10.0795C92.0717 9.85227 92.8246 9.73864 93.6143 9.73864C94.1371 9.73864 94.6911 9.80114 95.2763 9.92614C95.8672 10.0455 96.4183 10.267 96.9297 10.5909C97.4467 10.9148 97.87 11.3778 98.1996 11.9801C98.5291 12.5767 98.6939 13.3523 98.6939 14.3068V23H96.2053V21.2102H96.103C95.9382 21.5398 95.6911 21.8636 95.3615 22.1818C95.032 22.5 94.6087 22.7642 94.0916 22.9744C93.5746 23.1847 92.9553 23.2898 92.2337 23.2898ZM92.7876 21.2443C93.4922 21.2443 94.0945 21.1051 94.5945 20.8267C95.1001 20.5483 95.4837 20.1847 95.745 19.7358C96.0121 19.2812 96.1456 18.7955 96.1456 18.2784V16.5909C96.0547 16.6818 95.8786 16.767 95.6172 16.8466C95.3615 16.9205 95.0689 16.9858 94.7393 17.0426C94.4098 17.0937 94.0888 17.142 93.7763 17.1875C93.4638 17.2273 93.2024 17.2614 92.9922 17.2898C92.4979 17.3523 92.0462 17.4574 91.6371 17.6051C91.2337 17.7528 90.9098 17.9659 90.6655 18.2443C90.4268 18.517 90.3075 18.8807 90.3075 19.3352C90.3075 19.9659 90.5405 20.4432 91.0064 20.767C91.4723 21.0852 92.0661 21.2443 92.7876 21.2443ZM102.088 23V9.90909H104.551V11.9886H104.688C104.926 11.2841 105.347 10.7301 105.949 10.3267C106.557 9.91761 107.244 9.71307 108.011 9.71307C108.17 9.71307 108.358 9.71875 108.574 9.73011C108.795 9.74148 108.969 9.75568 109.094 9.77273V12.2102C108.991 12.1818 108.81 12.1506 108.548 12.1165C108.287 12.0767 108.026 12.0568 107.764 12.0568C107.162 12.0568 106.625 12.1847 106.153 12.4403C105.688 12.6903 105.318 13.0398 105.045 13.4886C104.773 13.9318 104.636 14.4375 104.636 15.0057V23H102.088ZM113.847 5.54545V23H111.299V5.54545H113.847ZM117.276 23V9.90909H119.824V23H117.276ZM118.562 7.8892C118.119 7.8892 117.739 7.74148 117.42 7.44602C117.108 7.14489 116.952 6.78693 116.952 6.37216C116.952 5.9517 117.108 5.59375 117.42 5.29829C117.739 4.99716 118.119 4.84659 118.562 4.84659C119.006 4.84659 119.384 4.99716 119.696 5.29829C120.014 5.59375 120.173 5.9517 120.173 6.37216C120.173 6.78693 120.014 7.14489 119.696 7.44602C119.384 7.74148 119.006 7.8892 118.562 7.8892ZM125.8 15.2273V23H123.252V9.90909H125.698V12.0398H125.86C126.161 11.3466 126.633 10.7898 127.275 10.3693C127.923 9.94886 128.738 9.73864 129.721 9.73864C130.613 9.73864 131.394 9.92614 132.065 10.3011C132.735 10.6705 133.255 11.2216 133.624 11.9545C133.994 12.6875 134.178 13.5937 134.178 14.6733V23H131.63V14.9801C131.63 14.0312 131.383 13.2898 130.888 12.7557C130.394 12.2159 129.715 11.946 128.852 11.946C128.261 11.946 127.735 12.0739 127.275 12.3295C126.82 12.5852 126.46 12.9602 126.192 13.4545C125.931 13.9432 125.8 14.5341 125.8 15.2273ZM143.238 23.2642C141.948 23.2642 140.837 22.9886 139.906 22.4375C138.979 21.8807 138.263 21.0994 137.758 20.0938C137.258 19.0824 137.008 17.8977 137.008 16.5398C137.008 15.1989 137.258 14.017 137.758 12.9943C138.263 11.9716 138.968 11.1733 139.871 10.5994C140.781 10.0256 141.843 9.73864 143.059 9.73864C143.798 9.73864 144.513 9.8608 145.207 10.1051C145.9 10.3494 146.522 10.733 147.073 11.2557C147.624 11.7784 148.059 12.4574 148.377 13.2926C148.695 14.1222 148.854 15.1307 148.854 16.3182V17.2216H138.448V15.3125H146.357C146.357 14.642 146.221 14.0483 145.948 13.5312C145.675 13.0085 145.292 12.5966 144.798 12.2955C144.309 11.9943 143.735 11.8438 143.076 11.8438C142.36 11.8438 141.735 12.0199 141.201 12.3722C140.673 12.7187 140.263 13.1733 139.974 13.7358C139.69 14.2926 139.548 14.8977 139.548 15.5511V17.0426C139.548 17.9176 139.701 18.6619 140.008 19.2756C140.32 19.8892 140.755 20.358 141.312 20.6818C141.869 21 142.519 21.1591 143.263 21.1591C143.746 21.1591 144.187 21.0909 144.585 20.9545C144.982 20.8125 145.326 20.6023 145.616 20.3239C145.906 20.0455 146.127 19.7017 146.281 19.2926L148.692 19.7273C148.499 20.4375 148.153 21.0597 147.653 21.5938C147.158 22.1222 146.536 22.5341 145.786 22.8295C145.042 23.1193 144.192 23.2642 143.238 23.2642Z" fill="#082B82"/>
<defs>
<linearGradient id="paint0_linear_1355_1895" x1="-8.16547" y1="1.15998" x2="23.1164" y2="20.3776" gradientUnits="userSpaceOnUse">
<stop offset="0.02" stop-color="#04CB00"/>
<stop offset="1" stop-color="#008BE9"/>
</linearGradient>
</defs>
</svg>
