<svg width="28" height="28" viewBox="0 0 28 28" fill="none" xmlns="http://www.w3.org/2000/svg">
<circle cx="14" cy="14" r="14" fill="#DFFFF8"/>
<path d="M18.725 14.9699C19.4278 14.9699 19.9975 14.4002 19.9975 13.6974C19.9975 12.9946 19.4278 12.4249 18.725 12.4249C18.0222 12.4249 17.4525 12.9946 17.4525 13.6974C17.4525 14.4002 18.0222 14.9699 18.725 14.9699Z" stroke="#002119" stroke-width="1.0625" stroke-linecap="round" stroke-linejoin="round"/>
<path d="M18.725 9.88008C19.4278 9.88008 19.9975 9.31037 19.9975 8.60758C19.9975 7.9048 19.4278 7.33508 18.725 7.33508C18.0222 7.33508 17.4525 7.9048 17.4525 8.60758C17.4525 9.31037 18.0222 9.88008 18.725 9.88008Z" stroke="#002119" stroke-width="1.0625" stroke-linecap="round" stroke-linejoin="round"/>
<path d="M18.725 20.06C19.4278 20.06 19.9975 19.4903 19.9975 18.7875C19.9975 18.0847 19.4278 17.515 18.725 17.515C18.0222 17.515 17.4525 18.0847 17.4525 18.7875C17.4525 19.4903 18.0222 20.06 18.725 20.06Z" stroke="#002119" stroke-width="1.0625" stroke-linecap="round" stroke-linejoin="round"/>
<path d="M8.54496 14.9699C9.24774 14.9699 9.81746 14.4002 9.81746 13.6974C9.81746 12.9946 9.24774 12.4249 8.54496 12.4249C7.84218 12.4249 7.27246 12.9946 7.27246 13.6974C7.27246 14.4002 7.84218 14.9699 8.54496 14.9699Z" stroke="#002119" stroke-width="1.0625" stroke-linecap="round" stroke-linejoin="round"/>
<path d="M9.8175 13.6975H17.4525" stroke="#002119" stroke-width="1.0625" stroke-linecap="round" stroke-linejoin="round"/>
<path d="M17.4525 8.60742H14.9075C13.635 8.60742 12.9988 9.24367 12.9988 10.5162V16.8787C12.9988 18.1512 13.635 18.7874 14.9075 18.7874H17.4525" stroke="#002119" stroke-width="1.0625" stroke-linecap="round" stroke-linejoin="round"/>
</svg>
