<svg width="82" height="82" viewBox="0 0 82 82" fill="none" xmlns="http://www.w3.org/2000/svg">
<circle cx="41" cy="41" r="41" fill="white"/>
<g clip-path="url(#clip0_3179_4958)">
<path d="M55.7143 28.9101C53.4043 34.6701 47.6143 42.5001 42.7693 46.3851L39.8143 48.7551C39.4393 49.0251 39.0643 49.2651 38.6443 49.4301C38.6443 49.1601 38.6293 48.8601 38.5843 48.5751C38.4193 47.3151 37.8493 46.1451 36.8443 45.1401C35.8243 44.1201 34.5793 43.5201 33.3043 43.3551C33.0043 43.3401 32.7043 43.3101 32.4043 43.3401C32.5693 42.8751 32.8243 42.4401 33.1393 42.0801L35.4793 39.1251C39.3493 34.2801 47.2093 28.4601 52.9543 26.1651C53.8393 25.8351 54.6943 26.0751 55.2343 26.6301C55.8043 27.1851 56.0743 28.0401 55.7143 28.9101Z" stroke="#02775C" stroke-width="2.25" stroke-linecap="round" stroke-linejoin="round"/>
<path d="M38.6439 49.4301C38.6439 51.0801 38.0139 52.6551 36.8289 53.8551C35.9139 54.7701 34.6689 55.4001 33.1839 55.5951L29.4939 56.0001C27.4839 56.2251 25.7589 54.5151 25.9989 52.4751L26.4039 48.7851C26.7639 45.5001 29.5089 43.4001 32.4189 43.3401C32.7189 43.3251 33.0339 43.3401 33.3189 43.3551C34.5939 43.5201 35.8389 44.1051 36.8589 45.1401C37.8639 46.1451 38.4339 47.3151 38.5989 48.5751C38.6139 48.8601 38.6439 49.1451 38.6439 49.4301Z" stroke="#02775C" stroke-width="2.25" stroke-linecap="round" stroke-linejoin="round"/>
<path d="M44.3606 44.705C44.3606 40.79 41.1806 37.61 37.2656 37.61" stroke="#02775C" stroke-width="2.25" stroke-linecap="round" stroke-linejoin="round"/>
<path d="M53.182 42.095L54.292 43.19C56.527 45.425 56.527 47.63 54.292 49.865L49.852 54.305C47.647 56.51 45.412 56.51 43.207 54.305" stroke="#02775C" stroke-width="2.25" stroke-linecap="round"/>
<path d="M27.6655 38.7651C25.4605 36.5301 25.4605 34.3251 27.6655 32.0901L32.1055 27.6501C34.3105 25.4451 36.5455 25.4451 38.7505 27.6501L39.8605 28.7601" stroke="#02775C" stroke-width="2.25" stroke-linecap="round"/>
<path d="M39.8762 28.775L34.3262 34.325" stroke="#02775C" stroke-width="2.25" stroke-linecap="round"/>
<path d="M53.1802 42.095L48.7402 46.52" stroke="#02775C" stroke-width="2.25" stroke-linecap="round"/>
</g>
<defs>
<clipPath id="clip0_3179_4958">
<rect width="36" height="36" fill="white" transform="translate(23 23)"/>
</clipPath>
</defs>
</svg>
