<svg width="82" height="82" viewBox="0 0 82 82" fill="none" xmlns="http://www.w3.org/2000/svg">
<circle cx="41" cy="41" r="41" fill="#DAFFF6"/>
<path d="M48.6007 41.2555C48.1628 44.9015 45.7748 46.3584 44.7434 47.416C43.7105 48.4766 43.8955 48.6878 43.9649 50.2434C43.9765 50.4358 43.9485 50.6286 43.8827 50.8099C43.817 50.9911 43.7148 51.157 43.5825 51.2972C43.4502 51.4374 43.2906 51.5491 43.1135 51.6253C42.9364 51.7015 42.7455 51.7407 42.5527 51.7403H38.455C38.2623 51.74 38.0717 51.7004 37.8948 51.624C37.718 51.5476 37.5585 51.4359 37.4262 51.2958C37.2939 51.1557 37.1916 50.9902 37.1254 50.8092C37.0592 50.6283 37.0306 50.4357 37.0413 50.2434C37.0413 48.7171 37.1831 48.3625 36.2643 47.416C35.0926 46.2443 32.3361 44.5901 32.3361 40.0406C32.3291 38.9106 32.5562 37.7913 33.0032 36.7534C33.4502 35.7155 34.1074 34.7815 34.9333 34.0102C35.7592 33.2388 36.7359 32.647 37.8019 32.2719C38.8679 31.8968 40 31.7466 41.127 31.8308C42.2539 31.9149 43.3512 32.2317 44.3496 32.7609C45.3481 33.2902 46.226 34.0206 46.9282 34.9061C47.6303 35.7915 48.1415 36.8128 48.4293 37.9056C48.7172 38.9984 48.7755 40.139 48.6007 41.2555Z" stroke="#02775C" stroke-width="2.3125" stroke-linecap="round" stroke-linejoin="round"/>
<path d="M38.1283 51.6555V53.9865C38.1283 54.6232 38.4828 55.1459 38.9191 55.1459H42.0842C42.5235 55.1459 42.8766 54.6217 42.8766 53.9865V51.6555M39.2999 35.4064C38.3896 35.4068 37.5167 35.7687 36.8732 36.4125C36.2297 37.0563 35.8682 37.9294 35.8682 38.8397M51.8059 40.352H54.6333M48.96 31.0835L50.9657 29.0778M50.5017 48.2084L52.5074 50.2125M40.5024 25.6646V27.9509M30.0808 29.0763L32.0726 31.0835M28.5391 50.2125L30.5309 48.2084M29.1989 40.352H26.373" stroke="#02775C" stroke-width="2.3125" stroke-linecap="round" stroke-linejoin="round"/>
</svg>
