<svg width="30" height="29" viewBox="0 0 30 29" fill="none" xmlns="http://www.w3.org/2000/svg">
<path d="M26.8726 19.8713V5.56614C26.8726 4.14391 25.7111 3.0891 24.3007 3.20762H24.2296C21.7407 3.42095 17.96 4.6891 15.8504 6.01651L15.6489 6.14688C15.3052 6.36021 14.7363 6.36021 14.3926 6.14688L14.0963 5.9691C11.9867 4.65354 8.21777 3.39725 5.72888 3.19576C4.31851 3.07725 3.16888 4.14391 3.16888 5.55428V19.8713C3.16888 21.0091 4.09333 22.0758 5.23111 22.218L5.57481 22.2654C8.14666 22.6091 12.117 23.9128 14.3926 25.1572L14.44 25.1809C14.76 25.3587 15.2696 25.3587 15.5778 25.1809C17.8533 23.9247 21.8356 22.6091 24.4193 22.2654L24.8104 22.218C25.9481 22.0758 26.8726 21.0091 26.8726 19.8713Z" stroke="#02775C" stroke-width="1.77778" stroke-linecap="round" stroke-linejoin="round"/>
<path d="M15.0208 6.53809V24.3159" stroke="#02775C" stroke-width="1.77778" stroke-linecap="round" stroke-linejoin="round"/>
<path d="M9.98368 10.0938H7.31702" stroke="#02775C" stroke-width="1.77778" stroke-linecap="round" stroke-linejoin="round"/>
<path d="M10.8726 13.6492H7.31702" stroke="#02775C" stroke-width="1.77778" stroke-linecap="round" stroke-linejoin="round"/>
</svg>
