<svg width="29" height="29" viewBox="0 0 29 29" fill="none" xmlns="http://www.w3.org/2000/svg">
<path d="M15.2656 2.73399L25.7914 6.94428C26.2008 7.10802 26.5283 7.59921 26.5283 8.03194V11.9148C26.5283 12.558 26.002 13.0843 25.3587 13.0843H4.30713C3.66389 13.0843 3.1376 12.558 3.1376 11.9148V8.03194C3.1376 7.59921 3.46507 7.10802 3.87441 6.94428L14.4002 2.73399C14.6341 2.64043 15.0317 2.64043 15.2656 2.73399Z" stroke="#02775C" stroke-width="1.7543" stroke-miterlimit="10" stroke-linecap="round" stroke-linejoin="round"/>
<path d="M26.5283 25.9491H3.1376V22.4405C3.1376 21.7973 3.66389 21.271 4.30713 21.271H25.3587C26.002 21.271 26.5283 21.7973 26.5283 22.4405V25.9491Z" stroke="#02775C" stroke-width="1.7543" stroke-miterlimit="10" stroke-linecap="round" stroke-linejoin="round"/>
<path d="M5.47666 21.271V13.0842" stroke="#02775C" stroke-width="1.7543" stroke-miterlimit="10" stroke-linecap="round" stroke-linejoin="round"/>
<path d="M10.1548 21.271V13.0842" stroke="#02775C" stroke-width="1.7543" stroke-miterlimit="10" stroke-linecap="round" stroke-linejoin="round"/>
<path d="M14.8329 21.271V13.0842" stroke="#02775C" stroke-width="1.7543" stroke-miterlimit="10" stroke-linecap="round" stroke-linejoin="round"/>
<path d="M19.5111 21.271V13.0842" stroke="#02775C" stroke-width="1.7543" stroke-miterlimit="10" stroke-linecap="round" stroke-linejoin="round"/>
<path d="M24.1892 21.271V13.0842" stroke="#02775C" stroke-width="1.7543" stroke-miterlimit="10" stroke-linecap="round" stroke-linejoin="round"/>
<path d="M1.96806 25.9492H27.6978" stroke="#02775C" stroke-width="1.7543" stroke-miterlimit="10" stroke-linecap="round" stroke-linejoin="round"/>
<path d="M14.8329 10.1605C15.8018 10.1605 16.5872 9.37503 16.5872 8.40616C16.5872 7.43728 15.8018 6.65186 14.8329 6.65186C13.8641 6.65186 13.0786 7.43728 13.0786 8.40616C13.0786 9.37503 13.8641 10.1605 14.8329 10.1605Z" stroke="#02775C" stroke-width="1.7543" stroke-miterlimit="10" stroke-linecap="round" stroke-linejoin="round"/>
</svg>
