<svg width="30" height="29" viewBox="0 0 30 29" fill="none" xmlns="http://www.w3.org/2000/svg">
<g clip-path="url(#clip0_4301_2022)">
<rect x="2" y="1.5" width="26" height="26" rx="13" fill="#2E42A5"/>
<path d="M-0.894531 20.2775L4.82684 22.7867L28.1304 4.22812L31.1482 0.499241L25.0301 -0.339437L15.5251 7.658L7.87461 13.0464L-0.894531 20.2775Z" fill="white"/>
<path d="M-0.109619 22.0356L2.80516 23.4918L30.0662 0.152899H25.9735L-0.109619 22.0356Z" fill="#F50100"/>
<path d="M30.8945 20.2775L25.1732 22.7867L1.86965 4.22812L-1.14824 0.499241L4.96994 -0.339437L14.4749 7.658L22.1254 13.0464L30.8945 20.2775Z" fill="white"/>
<path d="M30.7 21.5392L27.7852 22.9954L16.1771 13.0028L12.7356 11.8863L-1.43799 0.511982H2.65469L16.8203 11.6163L20.583 12.9551L30.7 21.5392Z" fill="#F50100"/>
<path fill-rule="evenodd" clip-rule="evenodd" d="M16.4221 1.5H13.5332V12.6429H2V16.3571H13.5332V27.5H16.4221V16.3571H28V12.6429H16.4221V1.5Z" fill="#F50100"/>
<path fill-rule="evenodd" clip-rule="evenodd" d="M11.3665 1.5H18.5887V9.85714H28V19.1429H18.5887L18.6111 27.5H11.3889L11.3665 19.1429H2V9.85714H11.3665V1.5ZM13.5332 12.6429H2V16.3571H13.5332V27.5H16.4221V16.3571H28V12.6429H16.4221V1.5H13.5332V12.6429Z" fill="white"/>
</g>
<rect x="1.45833" y="0.958333" width="27.0833" height="27.0833" rx="13.5417" stroke="white" stroke-width="1.08333"/>
<defs>
<clipPath id="clip0_4301_2022">
<rect x="2" y="1.5" width="26" height="26" rx="13" fill="white"/>
</clipPath>
</defs>
</svg>
