<svg width="102" height="102" viewBox="0 0 102 102" fill="none" xmlns="http://www.w3.org/2000/svg">
<mask id="mask0_3187_1455" style="mask-type:luminance" maskUnits="userSpaceOnUse" x="0" y="0" width="102" height="102">
<path d="M101.828 51.0633C101.828 22.9445 79.0329 0.149658 50.9141 0.149658C22.7953 0.149658 0.000488281 22.9445 0.000488281 51.0633C0.000488281 79.1821 22.7953 101.977 50.9141 101.977C79.0329 101.977 101.828 79.1821 101.828 51.0633Z" fill="white"/>
</mask>
<g mask="url(#mask0_3187_1455)">
<path d="M101.828 51.0633C101.828 22.9445 79.0329 0.149658 50.9141 0.149658C22.7953 0.149658 0.000488281 22.9445 0.000488281 51.0633C0.000488281 79.1821 22.7953 101.977 50.9141 101.977C79.0329 101.977 101.828 79.1821 101.828 51.0633Z" fill="#83BF6E"/>
<path d="M94.2142 95.7482L93.9758 96.9589L93.2706 100.381L1.65845 106.708C5.22232 98.0025 11.5694 90.4145 18.934 84.3698C29.8579 75.4564 44.8123 72.9638 58.5783 74.2995C71.4041 75.5425 85.1244 84.0761 92.8323 93.8676C93.3018 94.4704 93.7754 95.107 94.2142 95.7482Z" fill="#FE4E4E"/>
<path d="M66.7085 50.7185C65.71 50.0674 63.9314 50.2249 63.343 51.434C62.284 53.6605 61.2204 55.8522 60.1261 58.0829C59.5684 59.2526 59.6402 60.6606 60.8345 61.4638C61.8335 62.1147 63.6121 61.9574 64.2005 60.7482C65.2594 58.5217 66.323 56.3305 67.4173 54.0993C67.9704 52.8948 67.8986 51.4868 66.7085 50.7185Z" fill="#23355F"/>
<path d="M62.4819 35.3931C62.4722 34.4703 62.4276 33.5521 62.2748 32.6123C62.2574 32.4724 62.201 32.302 62.1836 32.1621C62.1272 31.9917 62.0319 31.7908 61.9929 31.7603C61.9888 31.7253 61.9278 31.5199 61.8325 31.319C61.7464 31.188 61.6639 31.0921 61.5778 30.9611C61.5342 30.8956 61.3609 30.6337 61.1923 30.4068C61.1534 30.3763 61.1144 30.3457 61.076 30.3152C60.8033 30.1017 59.9514 29.1813 59.5716 29.2304C60.4014 29.6917 60.5224 29.8182 60.0298 29.5265C59.9176 29.47 59.8443 29.4439 59.7315 29.3874C59.3994 29.2527 59.0621 29.083 58.6905 28.9179C58.3235 28.7877 57.9908 28.653 57.6238 28.5228C57.5116 28.4663 57.3645 28.4142 57.2866 28.3532C56.7771 28.2058 56.1769 28.1769 55.7494 28.1256C54.2081 27.8629 52.6797 27.7053 51.1295 27.657C50.7755 27.6317 50.4258 27.6414 50.0372 27.6206C49.0704 27.7457 49.1696 27.6973 49.5149 27.6526C48.9191 27.6586 48.319 27.6296 47.7578 27.6311C45.1375 27.7213 42.4957 27.9209 39.8841 28.0809C38.3371 30.0225 37.2613 32.365 36.8896 35.0074L34.2483 53.1892C33.4363 58.7675 35.922 64.0612 40.2219 67.0233C40.3091 70.5303 40.3618 74.0418 40.4489 77.5488C40.5661 83.8241 47.5492 88.3223 53.1774 87.5945C57.4593 87.0409 60.4255 84.3823 61.953 80.8799C62.5767 79.413 62.8294 77.7815 62.7361 76.1941C62.2682 69.0756 62.9612 61.9848 64.177 54.8622C64.8746 50.614 65.4271 44.9274 67.2769 40.3524C64.9453 39.9432 62.4558 37.9908 62.4819 35.3931Z" fill="#F7ACA9"/>
<path d="M58.2348 23.6513L53.3219 22.9355C48.2652 22.2027 43.4522 24.2228 40.3689 27.8559C40.4475 27.9164 40.5654 28.0072 40.6484 28.1024C45.5636 33.5752 53.7525 28.2723 59.3896 32.1735C63.0837 34.7354 61.1108 40.1305 61.9273 43.7623C63.2323 44.2662 64.0094 44.5201 64.0181 44.5895C65.7526 43.4532 67.7403 42.6372 69.8772 42.1547L70.2401 39.7124C71.381 31.9561 66.0012 24.7804 58.2348 23.6513Z" fill="#23355F"/>
<path d="M62.4418 44.8167C72.1692 40.7289 74.4783 41.8806 75.2692 45.8677C76.0601 49.8547 73.1539 52.3726 65.5972 54.8462C58.0404 57.3199 62.4418 44.8167 62.4418 44.8167Z" fill="#F7ACA9"/>
<path d="M63.7607 50.0117C65.4368 47.8064 67.8484 46.3495 70.5983 45.8659C71.3646 45.7351 71.5142 46.9069 70.7521 47.0721C68.3179 47.5164 66.2082 48.8305 64.7161 50.8027C64.2563 51.3854 63.3061 50.6288 63.7607 50.0117Z" fill="#23355F"/>
<path d="M39.9472 41.3171C40.4768 40.7862 41.4436 41.5145 40.8839 42.0848C39.3898 43.5941 36.1834 47.6723 39.7421 48.9538C40.4754 49.2144 39.9855 50.3447 39.2522 50.0841C37.7467 49.5323 36.9686 48.0684 36.9794 46.4667C37.0325 44.3618 38.5824 42.7385 39.9472 41.3171Z" fill="#23355F"/>
<path d="M40.558 66.3947C44.0318 67.0462 47.5453 67.4496 51.0679 67.6438C51.8585 67.6864 51.6509 68.8571 50.8953 68.8109C47.3728 68.6167 43.8549 68.1785 40.3855 67.5613C39.617 67.4122 39.7895 66.2456 40.558 66.3947Z" fill="#23355F"/>
<path d="M48.3372 39.0149C49.0926 39.377 49.8829 39.7348 50.6384 40.0969C51.3547 40.4288 50.8586 41.5483 50.1424 41.2164C49.387 40.8542 48.5967 40.4965 47.8413 40.1343C47.1557 39.7634 47.6166 38.6483 48.3372 39.0149Z" fill="#23355F"/>
<path d="M36.4433 35.4766L38.2555 35.7403C39.0171 35.8552 38.8474 37.0332 38.0857 36.9183L36.2736 36.6546C35.4814 36.5786 35.6817 35.3618 36.4433 35.4766Z" fill="#23355F"/>
<path d="M41.1393 55.3136C41.5738 57.0537 43.6448 58.27 45.3683 57.5945C47.0919 56.9184 47.7917 54.6124 46.9165 53.0337C46.549 52.3761 47.5172 51.62 47.8892 52.312C49.1668 54.5437 48.3634 57.7082 45.8282 58.6975C43.293 59.6872 40.5141 57.9271 39.9128 55.4335C39.7503 54.7149 40.9725 54.5601 41.1393 55.3136Z" fill="#23355F"/>
<path d="M36.0421 39.6544C34.5245 39.9544 34.9677 42.3371 36.4852 42.0371C38.042 41.7674 37.5596 39.3544 36.0421 39.6544Z" fill="#23355F"/>
<path d="M47.3822 42.679C45.8646 42.979 46.3078 45.3616 47.8253 45.0616C49.3821 44.792 48.9042 42.4138 47.3822 42.679Z" fill="#23355F"/>
<path d="M59.8843 33.2041C60.0837 36.8151 59.996 40.3565 59.6295 43.8985C59.3061 46.9358 63.1252 47.437 63.4148 44.4042C63.7849 40.8973 63.8684 37.3209 63.669 33.7098C63.5004 30.6297 59.7115 30.0889 59.8843 33.2041Z" fill="#23355F"/>
<path d="M11.0212 93.6108L1.53212 94.2146C-0.840146 94.3658 -0.59796 97.9451 1.7743 97.7944L11.2634 97.1906C13.6356 97.0394 13.3934 93.4601 11.0212 93.6108Z" fill="#97B1FE"/>
<path d="M81.2386 93.3268L30.3647 100.213L32.812 118.292L83.6858 111.406L81.2386 93.3268Z" fill="#FE4E4E"/>
</g>
</svg>
