<svg width="29" height="29" viewBox="0 0 29 29" fill="none" xmlns="http://www.w3.org/2000/svg">
<path d="M11.2892 25.9493H18.3064C24.1541 25.9493 26.4932 23.6102 26.4932 17.7625V10.7453C26.4932 4.89766 24.1541 2.55859 18.3064 2.55859H11.2892C5.44157 2.55859 3.1025 4.89766 3.1025 10.7453V17.7625C3.1025 23.6102 5.44157 25.9493 11.2892 25.9493Z" stroke="#02775C" stroke-width="1.7543" stroke-linecap="round" stroke-linejoin="round"/>
<path d="M3.1025 15.0727L10.1197 15.0493C10.9969 15.0493 11.9793 15.7159 12.3067 16.5346L13.64 19.9029C13.9441 20.6631 14.4236 20.6631 14.7277 19.9029L17.4059 13.1079C17.6632 12.4529 18.1427 12.4295 18.4702 13.0494L19.6865 15.3534C20.049 16.0434 20.9847 16.6048 21.7566 16.6048H26.5049" stroke="#02775C" stroke-width="1.7543" stroke-linecap="round" stroke-linejoin="round"/>
</svg>
