<svg width="29" height="29" viewBox="0 0 29 29" fill="none" xmlns="http://www.w3.org/2000/svg">
<path d="M12.4948 19.9267H8.06233C4.12106 19.9267 3.13867 18.9443 3.13867 15.003V7.98591C3.13867 4.04465 4.12106 3.06226 8.06233 3.06226H20.3773C24.3186 3.06226 25.301 4.04465 25.301 7.98591" stroke="#02775C" stroke-width="1.75427" stroke-linecap="round" stroke-linejoin="round"/>
<path d="M12.4941 25.2128V19.9266" stroke="#02775C" stroke-width="1.75427" stroke-linecap="round" stroke-linejoin="round"/>
<path d="M3.13867 15.2485H12.4948" stroke="#02775C" stroke-width="1.75427" stroke-linecap="round" stroke-linejoin="round"/>
<path d="M8.68164 25.2129H12.4943" stroke="#02775C" stroke-width="1.75427" stroke-linecap="round" stroke-linejoin="round"/>
<path d="M26.5265 15.0731V21.751C26.5265 24.5228 25.8365 25.2128 23.0647 25.2128H18.9129C16.1412 25.2128 15.4512 24.5228 15.4512 21.751V15.0731C15.4512 12.3013 16.1412 11.6113 18.9129 11.6113H23.0647C25.8365 11.6113 26.5265 12.3013 26.5265 15.0731Z" stroke="#02775C" stroke-width="1.75427" stroke-linecap="round" stroke-linejoin="round"/>
<path d="M20.967 21.4471H20.9775" stroke="#02775C" stroke-width="2.33903" stroke-linecap="round" stroke-linejoin="round"/>
</svg>
