<svg width="186" height="28" viewBox="0 0 186 28" fill="none" xmlns="http://www.w3.org/2000/svg">
<path d="M31.2754 25.929H0.361328V0.982178H5.95915V21.7592H31.2754V25.929Z" fill="#CDCDCD"/>
<path d="M31.2753 21.7628H25.7203V15.4069H18.9097V21.7628H13.2881V5.14209H18.9097V11.399H25.7203V5.14209H31.2753V21.7628Z" fill="#CDCDCD"/>
<path d="M42.2676 22.3258V6.33936H45.5445V22.3258H42.2676ZM45.0926 22.3258V19.5909H52.3836V22.3258H45.0926Z" fill="black"/>
<path d="M59.3366 22.7445C58.3311 22.7641 57.3316 22.5928 56.3974 22.2407C55.5888 21.9356 54.8554 21.4763 54.2429 20.8912C53.6651 20.3281 53.2123 19.6613 52.9112 18.93C52.6035 18.2062 52.4422 17.4341 52.4356 16.654V16.2041C52.4311 15.4055 52.5927 14.6138 52.9112 13.8741C53.2244 13.1386 53.6883 12.469 54.2762 11.9039C54.8906 11.3168 55.6276 10.8572 56.4402 10.5544C58.2917 9.89461 60.3339 9.89461 62.1855 10.5544C62.9812 10.8528 63.7039 11.3021 64.3092 11.8745C64.9144 12.447 65.3894 13.1305 65.7049 13.8831C66.0192 14.6239 66.1807 15.4149 66.1805 16.2131V16.663C66.1763 17.4433 66.0149 18.2158 65.7049 18.939C65.4038 19.6703 64.9511 20.3371 64.3732 20.9002C63.7616 21.4842 63.03 21.9434 62.2235 22.2497C61.3051 22.593 60.324 22.7611 59.3366 22.7445ZM59.3366 20.1355C60.0371 20.1583 60.7294 19.9879 61.3294 19.6452C61.8671 19.3164 62.2931 18.8479 62.5564 18.2958C62.8413 17.6935 62.9825 17.0393 62.9702 16.3796C62.9838 15.7111 62.8375 15.0483 62.5422 14.4409C62.2724 13.8858 61.8378 13.4169 61.2913 13.0914C60.6959 12.7699 60.0222 12.6009 59.3366 12.6009C58.651 12.6009 57.9773 12.7699 57.3819 13.0914C56.8338 13.4191 56.3951 13.887 56.1168 14.4409C55.8159 15.0469 55.6662 15.7102 55.6792 16.3796C55.6669 17.0407 55.8132 17.6959 56.1073 18.2958C56.3763 18.8471 56.8051 19.315 57.3438 19.6452C57.9438 19.9879 58.6361 20.1583 59.3366 20.1355Z" fill="black"/>
<path d="M72.5288 27.0122C71.9295 27.0122 71.316 27.0122 70.6882 26.9492C70.0604 26.8862 69.4802 26.8457 68.9428 26.7738V24.2323C69.4945 24.2908 70.089 24.3448 70.7215 24.3942C71.3541 24.4437 71.9533 24.4752 72.505 24.4752C73.3591 24.5017 74.2113 24.3829 75.0209 24.1243C75.6231 23.9304 76.1324 23.5396 76.4573 23.0223C76.7876 22.4329 76.9515 21.7729 76.9329 21.1061V18.758L77.6272 17.2691C77.6135 18.2381 77.368 19.1916 76.9091 20.058C76.5122 20.7901 75.9014 21.399 75.1494 21.8123C74.3629 22.2242 73.4752 22.4322 72.5764 22.415C71.7679 22.4288 70.9661 22.2752 70.2269 21.9652C69.5193 21.6674 68.887 21.2304 68.3721 20.6832C67.8603 20.1234 67.4635 19.4781 67.2021 18.7805C66.9225 18.0277 66.7825 17.2349 66.7883 16.437V15.9872C66.7817 15.1925 66.9267 14.4031 67.2163 13.6571C67.4865 12.9573 67.8985 12.314 68.4291 11.7634C68.9535 11.2242 69.5942 10.7978 70.3078 10.5129C71.0692 10.2095 71.8881 10.0564 72.7143 10.0631C73.6572 10.0407 74.5889 10.2599 75.4109 10.6973C76.1868 11.132 76.8116 11.7714 77.2087 12.5371C77.6708 13.4616 77.9158 14.4698 77.9269 15.4924L77.3704 15.5823V10.4274H79.9149V20.9261C79.9697 22.1381 79.6998 23.3434 79.1301 24.4302C78.5904 25.3315 77.7338 26.0254 76.7093 26.3914C75.3694 26.8447 73.9512 27.0553 72.5288 27.0122ZM73.4562 19.8151C74.045 19.8218 74.6259 19.6871 75.1446 19.4238C75.6566 19.1584 76.0812 18.7646 76.3717 18.2857C76.6984 17.7373 76.8627 17.1158 76.8473 16.4865V15.7218C76.8645 15.1207 76.6995 14.5276 76.3717 14.0125C76.0693 13.5588 75.6418 13.1917 75.1351 12.9509C74.6157 12.7099 74.0442 12.5867 73.4657 12.591C72.8351 12.5773 72.2133 12.7333 71.6727 13.0409C71.1489 13.3431 70.7267 13.7799 70.4552 14.3003C70.1475 14.8994 69.9974 15.5599 70.0176 16.2256C69.9995 16.8853 70.1496 17.5395 70.4552 18.1328C70.7272 18.6494 71.1496 19.0817 71.6727 19.3788C72.2146 19.6731 72.8316 19.8209 73.4562 19.8061V19.8151Z" fill="black"/>
<path d="M80.8906 12.7129V10.4279H85.8702V12.7039L80.8906 12.7129ZM83.8298 9.01093C83.5746 9.03152 83.3177 9 83.0764 8.91851C82.8352 8.83703 82.6153 8.70747 82.4316 8.53862C82.123 8.21186 81.961 7.78436 81.9797 7.34661C81.9599 6.9114 82.1222 6.48634 82.4316 6.16359C82.6185 6.00043 82.8395 5.87611 83.0803 5.79864C83.3212 5.72116 83.5765 5.69226 83.8298 5.71378C84.0818 5.69126 84.336 5.71973 84.5754 5.79729C84.8149 5.87484 85.0341 5.99971 85.2186 6.16359C85.521 6.4897 85.6793 6.91322 85.6609 7.34661C85.6784 7.78258 85.5203 8.20859 85.2186 8.53862C85.0372 8.708 84.8191 8.83799 84.5793 8.91955C84.3394 9.00112 84.0837 9.0323 83.8298 9.01093ZM82.6408 22.3255V10.4279H85.8607V22.3255H82.6408Z" fill="black"/>
<path d="M92.747 22.6989C91.0158 22.6989 89.6603 22.3525 88.6806 21.6598C88.2029 21.328 87.8145 20.8945 87.5468 20.3943C87.2791 19.8942 87.1396 19.3415 87.1396 18.781H90.0361C90.0713 19.0027 90.153 19.2156 90.2763 19.4071C90.3997 19.5987 90.5621 19.7651 90.7542 19.8965C91.3525 20.2782 92.0704 20.4559 92.7898 20.4003C93.4316 20.4311 94.0701 20.2941 94.6351 20.0045C94.841 19.9018 95.0133 19.7477 95.1332 19.559C95.2531 19.3703 95.316 19.1541 95.3152 18.9339C95.3202 18.7479 95.2752 18.5637 95.1846 18.3985C95.0939 18.2333 94.9605 18.0925 94.7968 17.9893C94.2532 17.7046 93.6441 17.5502 93.0228 17.5395L91.9099 17.4315C90.7323 17.3616 89.604 16.9588 88.6711 16.2755C88.298 15.9738 88.0019 15.5961 87.805 15.1707C87.6082 14.7454 87.5156 14.2835 87.5344 13.8195C87.512 13.09 87.7406 12.3733 88.186 11.7773C88.6412 11.2013 89.2644 10.7636 89.979 10.5178C90.8175 10.2112 91.7101 10.0585 92.6091 10.068C93.9341 10.0096 95.245 10.3463 96.3568 11.0306C96.8332 11.3529 97.2191 11.7803 97.481 12.2758C97.7429 12.7712 97.8729 13.3197 97.8597 13.8735H94.9633C94.944 13.6638 94.876 13.4608 94.7642 13.2789C94.6524 13.0969 94.4995 12.9405 94.3165 12.8209C93.8057 12.4947 93.1957 12.3367 92.5805 12.3711C92.0277 12.3394 91.4779 12.4698 91.0063 12.7444C90.8347 12.8469 90.6935 12.9891 90.5961 13.1575C90.4988 13.3259 90.4484 13.5151 90.4498 13.707C90.4409 13.8774 90.4776 14.0472 90.5566 14.2005C90.6356 14.3539 90.7543 14.4858 90.9016 14.5842C91.3491 14.832 91.8533 14.974 92.3713 14.998L93.4842 15.1105C94.7398 15.1771 95.9492 15.5812 96.9703 16.2755C97.3799 16.5723 97.7084 16.9574 97.9285 17.3987C98.1485 17.8401 98.2538 18.3248 98.2354 18.8125C98.2531 19.549 98.0122 20.2703 97.5505 20.8636C97.0579 21.4686 96.4002 21.9351 95.6481 22.2131C94.7242 22.5536 93.7384 22.7186 92.747 22.6989Z" fill="black"/>
<path d="M97.8877 12.6774V10.4283H106.777V12.6774H97.8877ZM104.993 22.4789C104.022 22.5073 103.055 22.3639 102.14 22.0561C101.411 21.7848 100.813 21.2692 100.461 20.6077C100.05 19.7456 99.859 18.8041 99.9042 17.8593V7.06372H102.915L102.886 18.0752C102.861 18.3174 102.893 18.5618 102.98 18.7909C103.067 19.02 103.206 19.2281 103.388 19.4002C103.57 19.5722 103.79 19.704 104.032 19.786C104.274 19.868 104.533 19.8983 104.789 19.8745H106.758V22.4789H104.993Z" fill="black"/>
<path d="M106.938 12.7126V10.4275H111.917V12.7036L106.938 12.7126ZM109.881 9.01059C109.626 9.03095 109.368 8.99934 109.126 8.91789C108.884 8.83643 108.663 8.70701 108.478 8.53828C108.163 8.21401 107.993 7.78681 108.003 7.34627C107.992 6.90833 108.163 6.48375 108.478 6.16325C108.666 5.99997 108.888 5.87562 109.13 5.79816C109.371 5.72069 109.627 5.69184 109.881 5.71344C110.133 5.6915 110.387 5.72025 110.627 5.79777C110.866 5.8753 111.085 5.99985 111.27 6.16325C111.569 6.49097 111.726 6.91376 111.708 7.34627C111.725 7.78138 111.569 8.20668 111.27 8.53828C111.089 8.70741 110.871 8.83724 110.631 8.91878C110.391 9.00033 110.135 9.03166 109.881 9.01059ZM108.697 22.3252V10.4275H111.917V22.3252H108.697Z" fill="black"/>
<path d="M119.812 22.7436C118.832 22.7691 117.857 22.5894 116.959 22.2173C116.201 21.8877 115.527 21.4093 114.98 20.8139C114.451 20.2367 114.046 19.5675 113.787 18.8437C113.526 18.1196 113.394 17.3596 113.397 16.5946V16.1763C113.393 15.3896 113.53 14.608 113.801 13.8642C114.066 13.1385 114.48 12.4691 115.018 11.894C115.575 11.3051 116.258 10.8345 117.021 10.5131C117.928 10.1599 118.903 9.98572 119.884 10.0012C120.865 10.0167 121.833 10.2215 122.728 10.6031C123.562 10.979 124.278 11.5561 124.801 12.2764C125.325 13.0203 125.624 13.8848 125.667 14.7774H122.542C122.479 14.1873 122.185 13.6407 121.72 13.2435C121.183 12.8113 120.492 12.5906 119.789 12.6272C119.158 12.6112 118.538 12.7861 118.019 13.1265C117.535 13.4672 117.169 13.9371 116.968 14.476C116.725 15.096 116.608 15.7536 116.621 16.4147C116.611 17.0641 116.724 17.71 116.954 18.3219C117.149 18.8608 117.512 19.3312 117.996 19.6714C118.532 20.0092 119.168 20.1777 119.812 20.1527C120.305 20.1645 120.794 20.0659 121.239 19.8648C121.625 19.6872 121.953 19.4155 122.19 19.0776C122.433 18.7369 122.588 18.3471 122.642 17.9396H125.772C125.73 18.8448 125.42 19.7208 124.878 20.4675C124.339 21.1763 123.621 21.7455 122.79 22.1229C121.861 22.5448 120.842 22.7573 119.812 22.7436Z" fill="black"/>
<path d="M131.532 22.6989C129.801 22.6989 128.45 22.3525 127.466 21.6598C126.988 21.3282 126.6 20.8947 126.333 20.3944C126.066 19.8942 125.928 19.3413 125.93 18.781H128.821C128.857 19.0027 128.938 19.2156 129.062 19.4071C129.185 19.5987 129.347 19.7651 129.54 19.8965C130.139 20.2786 130.859 20.4562 131.58 20.4003C132.22 20.4305 132.857 20.2935 133.42 20.0045C133.626 19.9018 133.799 19.7477 133.918 19.559C134.038 19.3703 134.101 19.1541 134.101 18.9339C134.105 18.7479 134.061 18.5637 133.97 18.3985C133.879 18.2333 133.746 18.0925 133.582 17.9893C133.039 17.7034 132.43 17.5489 131.808 17.5395L130.7 17.4315C129.521 17.3624 128.391 16.9597 127.456 16.2755C127.083 15.9738 126.787 15.5961 126.59 15.1707C126.393 14.7454 126.301 14.2835 126.32 13.8195C126.297 13.09 126.526 12.3733 126.971 11.7773C127.428 11.2025 128.05 10.765 128.764 10.5178C129.603 10.2112 130.495 10.0585 131.394 10.068C132.719 10.0096 134.03 10.3463 135.142 11.0306C135.617 11.3507 136.002 11.775 136.264 12.2671C136.527 12.7592 136.659 13.3043 136.65 13.8555H133.753C133.734 13.6458 133.666 13.4428 133.554 13.2609C133.442 13.0789 133.29 12.9226 133.107 12.8029C132.596 12.4761 131.986 12.318 131.371 12.3531C130.818 12.322 130.268 12.4523 129.796 12.7264C129.622 12.8328 129.479 12.9804 129.383 13.1548C129.287 13.3291 129.241 13.5241 129.249 13.7205C129.242 13.8907 129.279 14.06 129.358 14.2132C129.437 14.3663 129.555 14.4985 129.701 14.5977C130.149 14.8455 130.653 14.9875 131.171 15.0115L132.284 15.124C133.534 15.1892 134.74 15.5885 135.76 16.2755C136.168 16.5732 136.496 16.9587 136.715 17.3999C136.934 17.8411 137.039 18.3253 137.021 18.8125C137.038 19.549 136.798 20.2703 136.336 20.8636C135.844 21.4691 135.186 21.9357 134.433 22.2131C133.509 22.5533 132.524 22.7184 131.532 22.6989Z" fill="black"/>
<path d="M142.163 22.3258V6.33936H145.449V22.3258H142.163ZM144.85 15.691V12.9562H153.853V15.691H144.85ZM153.254 22.3258V6.33936H156.541V22.3258H153.254Z" fill="black"/>
<path d="M163.349 22.6992C162.715 22.7347 162.081 22.6315 161.496 22.3974C160.911 22.1634 160.392 21.8048 159.977 21.3498C159.184 20.4501 158.788 19.1007 158.788 17.3014V10.4282H162.003V17.5758C161.97 18.2146 162.204 18.8401 162.655 19.3166C162.883 19.5361 163.158 19.7073 163.461 19.819C163.764 19.9306 164.089 19.9802 164.414 19.9643C164.75 19.9748 165.085 19.9199 165.397 19.8031C165.71 19.6862 165.994 19.5099 166.231 19.2851C166.473 19.0386 166.66 18.7488 166.781 18.4328C166.901 18.1167 166.954 17.781 166.935 17.4454V10.4282H170.15V22.3259H167.606V17.2699H167.858C167.891 18.2889 167.73 19.3052 167.382 20.2702C167.107 20.9998 166.596 21.6292 165.922 22.0695C165.197 22.5053 164.35 22.7247 163.492 22.6992H163.349Z" fill="black"/>
<path d="M179.858 22.7217C178.906 22.7414 177.965 22.5259 177.128 22.0964C176.332 21.6749 175.687 21.0393 175.274 20.2702C174.8 19.363 174.546 18.3671 174.532 17.3554H175.007V22.3258H172.458V6.33936H175.678V14.3326L174.822 15.5831C174.84 14.5192 175.105 13.4721 175.597 12.5153C176.003 11.7427 176.644 11.1021 177.438 10.6756C178.238 10.2591 179.14 10.0482 180.053 10.0638C180.871 10.0492 181.682 10.2027 182.431 10.5137C183.13 10.8125 183.753 11.2497 184.258 11.7956C184.774 12.3572 185.172 13.0079 185.428 13.7118C185.705 14.4805 185.842 15.2883 185.832 16.1004V16.5502C185.841 17.3748 185.701 18.1948 185.418 18.9747C185.154 19.6965 184.744 20.3627 184.21 20.9359C183.685 21.4995 183.035 21.9478 182.308 22.2494C181.536 22.57 180.701 22.731 179.858 22.7217ZM179.14 20.1577C179.784 20.1726 180.418 20.0016 180.957 19.6674C181.484 19.3292 181.904 18.8631 182.175 18.318C182.481 17.7023 182.632 17.028 182.617 16.3478C182.635 15.6673 182.484 14.9923 182.175 14.3776C181.905 13.8376 181.473 13.3841 180.934 13.0732C180.395 12.7622 179.771 12.6074 179.14 12.6278C178.533 12.6221 177.934 12.7565 177.395 13.0191C176.858 13.2869 176.409 13.6882 176.096 14.1797C175.751 14.7365 175.578 15.374 175.597 16.0194V16.919C175.577 17.5374 175.755 18.147 176.106 18.6688C176.437 19.1439 176.892 19.5298 177.428 19.7889C177.959 20.0396 178.546 20.1661 179.14 20.1577Z" fill="black"/>
</svg>
