<svg width="217" height="31" viewBox="0 0 217 31" fill="none" xmlns="http://www.w3.org/2000/svg">
<path d="M36.1693 29.3039H0V0.116211H6.54942V24.4252H36.1693V29.3039Z" fill="#FFC72B"/>
<path d="M36.1684 24.4296H29.6691V16.9932H21.7007V24.4296H15.1235V4.9834H21.7007V12.304H29.6691V4.9834H36.1684V24.4296Z" fill="#FFC72B"/>
<path d="M49.0298 25.0881V6.38403H52.8637V25.0881H49.0298ZM52.3351 25.0881V21.8883H60.8655V25.0881H52.3351Z" fill="white"/>
<path d="M69.0009 25.5778C67.8245 25.6009 66.6551 25.4004 65.562 24.9884C64.616 24.6315 63.7579 24.0941 63.0413 23.4096C62.3653 22.7507 61.8355 21.9705 61.4833 21.115C61.1232 20.268 60.9345 19.3647 60.9268 18.452V17.9257C60.9215 16.9913 61.1106 16.065 61.4833 15.1995C61.8496 14.3391 62.3924 13.5556 63.0803 12.8944C63.7991 12.2075 64.6614 11.6698 65.6121 11.3156C67.7784 10.5436 70.1677 10.5436 72.334 11.3156C73.265 11.6647 74.1106 12.1903 74.8188 12.8601C75.5269 13.5298 76.0827 14.3296 76.4518 15.2101C76.8196 16.0769 77.0085 17.0022 77.0082 17.9362V18.4625C77.0034 19.3755 76.8145 20.2793 76.4518 21.1255C76.0995 21.981 75.5698 22.7612 74.8937 23.4201C74.1781 24.1033 73.3221 24.6406 72.3786 24.9989C71.304 25.4006 70.1561 25.5973 69.0009 25.5778ZM69.0009 22.5254C69.8204 22.552 70.6305 22.3527 71.3324 21.9518C71.9616 21.567 72.46 21.0188 72.7681 20.3729C73.1014 19.6682 73.2666 18.9028 73.2522 18.1309C73.2682 17.3488 73.097 16.5734 72.7514 15.8627C72.4358 15.2133 71.9273 14.6647 71.2879 14.2838C70.5913 13.9077 69.803 13.7099 69.0009 13.7099C68.1988 13.7099 67.4105 13.9077 66.7139 14.2838C66.0726 14.6672 65.5594 15.2146 65.2337 15.8627C64.8817 16.5717 64.7066 17.3477 64.7218 18.1309C64.7073 18.9045 64.8786 19.671 65.2226 20.3729C65.5374 21.018 66.039 21.5654 66.6694 21.9518C67.3713 22.3527 68.1814 22.552 69.0009 22.5254Z" fill="white"/>
<path d="M84.4356 30.5712C83.7345 30.5712 83.0166 30.5712 82.2821 30.4975C81.5476 30.4238 80.8687 30.3765 80.2399 30.2922V27.3188C80.8854 27.3872 81.581 27.4503 82.3211 27.5082C83.0611 27.5661 83.7623 27.6029 84.4078 27.6029C85.407 27.634 86.4041 27.4949 87.3514 27.1924C88.0559 26.9655 88.6518 26.5083 89.0319 25.903C89.4184 25.2135 89.6101 24.4413 89.5883 23.6611V20.9139L90.4007 19.1719C90.3847 20.3056 90.0974 21.4211 89.5605 22.4348C89.0962 23.2914 88.3816 24.0038 87.5016 24.4873C86.5814 24.9693 85.5429 25.2126 84.4912 25.1926C83.5453 25.2086 82.6072 25.029 81.7424 24.6663C80.9145 24.3178 80.1747 23.8065 79.5722 23.1664C78.9734 22.5113 78.5092 21.7564 78.2033 20.9402C77.8762 20.0594 77.7124 19.1318 77.7192 18.1983V17.672C77.7115 16.7422 77.8811 15.8187 78.22 14.9458C78.5361 14.127 79.0181 13.3744 79.639 12.7302C80.2525 12.0994 81.002 11.6004 81.837 11.2671C82.7278 10.9121 83.6859 10.733 84.6526 10.7408C85.7558 10.7147 86.8459 10.9711 87.8077 11.4829C88.7154 11.9915 89.4464 12.7396 89.9111 13.6354C90.4517 14.7171 90.7383 15.8967 90.7513 17.0931L90.1002 17.1983V11.1671H93.0773V23.4506C93.1414 24.8685 92.8256 26.2787 92.1591 27.5503C91.5276 28.6048 90.5254 29.4167 89.3268 29.8449C87.759 30.3753 86.0997 30.6217 84.4356 30.5712ZM85.5207 22.1507C86.2095 22.1585 86.8891 22.0009 87.4961 21.6928C88.095 21.3823 88.5918 20.9216 88.9317 20.3613C89.314 19.7197 89.5062 18.9924 89.4882 18.2562V17.3615C89.5084 16.6583 89.3153 15.9643 88.9317 15.3616C88.578 14.8308 88.0777 14.4013 87.4849 14.1196C86.8773 13.8377 86.2086 13.6935 85.5318 13.6985C84.7939 13.6825 84.0664 13.865 83.434 14.2248C82.8211 14.5785 82.3271 15.0895 82.0095 15.6984C81.6495 16.3993 81.4738 17.172 81.4975 17.9509C81.4763 18.7228 81.6519 19.4882 82.0095 20.1824C82.3277 20.7868 82.8219 21.2926 83.434 21.6402C84.068 21.9845 84.7898 22.1574 85.5207 22.1401V22.1507Z" fill="white"/>
<path d="M94.2189 13.8413V11.1677H100.045V13.8307L94.2189 13.8413ZM97.6577 9.50996C97.3591 9.53404 97.0585 9.49717 96.7762 9.40183C96.494 9.30649 96.2367 9.15492 96.0218 8.95736C95.6607 8.57505 95.4712 8.07488 95.4931 7.56271C95.4699 7.05352 95.6599 6.5562 96.0218 6.17859C96.2405 5.98769 96.4991 5.84223 96.7808 5.75159C97.0626 5.66095 97.3613 5.62713 97.6577 5.6523C97.9525 5.62596 98.2499 5.65927 98.5301 5.75001C98.8102 5.84075 99.0667 5.98685 99.2826 6.17859C99.6363 6.56013 99.8216 7.05564 99.8001 7.56271C99.8205 8.0728 99.6356 8.57122 99.2826 8.95736C99.0704 9.15553 98.8151 9.30762 98.5345 9.40305C98.254 9.49848 97.9547 9.53496 97.6577 9.50996ZM96.2666 25.0879V11.1677H100.034V25.0879H96.2666Z" fill="white"/>
<path d="M108.091 25.5246C106.065 25.5246 104.479 25.1194 103.333 24.3089C102.774 23.9207 102.32 23.4135 102.006 22.8284C101.693 22.2432 101.53 21.5966 101.53 20.9407H104.919C104.96 21.2002 105.056 21.4492 105.2 21.6733C105.344 21.8975 105.534 22.0921 105.759 22.2459C106.459 22.6925 107.299 22.9004 108.141 22.8353C108.892 22.8713 109.639 22.7111 110.3 22.3722C110.541 22.2521 110.742 22.0718 110.882 21.851C111.023 21.6302 111.096 21.3773 111.095 21.1197C111.101 20.902 111.049 20.6865 110.943 20.4932C110.836 20.3 110.68 20.1353 110.489 20.0145C109.853 19.6814 109.14 19.5007 108.413 19.4882L107.111 19.3619C105.733 19.28 104.413 18.8088 103.322 18.0093C102.885 17.6563 102.539 17.2144 102.309 16.7168C102.078 16.2191 101.97 15.6786 101.992 15.1358C101.966 14.2823 102.233 13.4438 102.754 12.7465C103.287 12.0726 104.016 11.5604 104.852 11.2729C105.833 10.9141 106.877 10.7355 107.929 10.7466C109.479 10.6783 111.013 11.0722 112.314 11.8729C112.871 12.2499 113.323 12.75 113.629 13.3297C113.936 13.9093 114.088 14.551 114.072 15.199H110.684C110.661 14.9537 110.582 14.7161 110.451 14.5033C110.32 14.2904 110.141 14.1075 109.927 13.9675C109.329 13.5859 108.616 13.4009 107.896 13.4412C107.249 13.4041 106.606 13.5566 106.054 13.878C105.853 13.9979 105.688 14.1642 105.574 14.3613C105.46 14.5584 105.401 14.7797 105.403 15.0042C105.392 15.2036 105.435 15.4022 105.528 15.5816C105.62 15.761 105.759 15.9154 105.932 16.0305C106.455 16.3205 107.045 16.4866 107.651 16.5147L108.953 16.6463C110.422 16.7242 111.837 17.197 113.032 18.0093C113.511 18.3565 113.895 18.8071 114.153 19.3235C114.41 19.8399 114.534 20.407 114.512 20.9776C114.533 21.8393 114.251 22.6832 113.711 23.3774C113.134 24.0852 112.365 24.6311 111.485 24.9563C110.404 25.3546 109.251 25.5478 108.091 25.5246Z" fill="white"/>
<path d="M114.106 13.7997V11.1683H124.506V13.7997H114.106ZM122.419 25.2674C121.283 25.3007 120.151 25.1329 119.08 24.7727C118.228 24.4553 117.528 23.8521 117.116 23.0781C116.635 22.0694 116.412 20.9678 116.465 19.8625V7.23169H119.987L119.954 20.1151C119.924 20.3984 119.962 20.6844 120.063 20.9525C120.165 21.2205 120.328 21.464 120.541 21.6653C120.753 21.8666 121.011 22.0208 121.294 22.1167C121.578 22.2127 121.88 22.248 122.18 22.2202H124.483V25.2674H122.419Z" fill="white"/>
<path d="M124.694 13.8409V11.1674H130.52V13.8303L124.694 13.8409ZM128.139 9.50956C127.839 9.53338 127.538 9.4964 127.255 9.4011C126.972 9.30579 126.713 9.15437 126.497 8.95696C126.128 8.57757 125.929 8.07774 125.941 7.56231C125.928 7.04993 126.128 6.55317 126.497 6.17819C126.717 5.98715 126.977 5.84166 127.259 5.75103C127.542 5.6604 127.841 5.62664 128.139 5.65191C128.434 5.62625 128.731 5.65987 129.011 5.75058C129.291 5.84128 129.547 5.98701 129.764 6.17819C130.113 6.56162 130.296 7.05628 130.276 7.56231C130.295 8.07139 130.113 8.56899 129.764 8.95696C129.551 9.15484 129.296 9.30674 129.015 9.40215C128.735 9.49756 128.436 9.53421 128.139 9.50956ZM126.753 25.0875V11.1674H130.52V25.0875H126.753Z" fill="white"/>
<path d="M139.758 25.5769C138.611 25.6068 137.471 25.3965 136.419 24.9612C135.533 24.5756 134.744 24.0158 134.104 23.3192C133.485 22.6438 133.011 21.8609 132.708 21.014C132.402 20.1669 132.248 19.2776 132.251 18.3826V17.8932C132.247 16.9728 132.407 16.0583 132.724 15.1881C133.035 14.339 133.519 13.5558 134.149 12.883C134.8 12.1939 135.599 11.6433 136.492 11.2673C137.553 10.8541 138.694 10.6502 139.842 10.6683C140.99 10.6864 142.122 10.9261 143.169 11.3725C144.145 11.8124 144.982 12.4876 145.595 13.3303C146.207 14.2007 146.557 15.2122 146.608 16.2564H142.952C142.877 15.5661 142.534 14.9265 141.989 14.4618C141.362 13.9561 140.553 13.698 139.73 13.7408C138.992 13.7221 138.267 13.9267 137.66 14.325C137.093 14.7236 136.665 15.2734 136.43 15.9038C136.146 16.6293 136.008 17.3987 136.024 18.1721C136.012 18.9319 136.144 19.6876 136.414 20.4036C136.642 21.034 137.067 21.5844 137.632 21.9824C138.26 22.3776 139.004 22.5748 139.758 22.5455C140.335 22.5594 140.907 22.444 141.427 22.2087C141.878 22.001 142.263 21.683 142.54 21.2877C142.824 20.8891 143.005 20.433 143.069 19.9562H146.73C146.681 21.0154 146.319 22.0402 145.684 22.9139C145.054 23.7431 144.214 24.4091 143.241 24.8507C142.155 25.3443 140.963 25.5929 139.758 25.5769Z" fill="white"/>
<path d="M153.469 25.5246C151.444 25.5246 149.864 25.1194 148.712 24.3089C148.153 23.921 147.699 23.4138 147.387 22.8285C147.074 22.2431 146.912 21.5963 146.914 20.9407H150.298C150.339 21.2002 150.435 21.4492 150.579 21.6733C150.723 21.8974 150.913 22.0921 151.138 22.2459C151.84 22.6929 152.682 22.9008 153.525 22.8353C154.274 22.8706 155.019 22.7104 155.679 22.3722C155.919 22.2521 156.121 22.0718 156.261 21.851C156.402 21.6302 156.475 21.3773 156.474 21.1197C156.48 20.902 156.427 20.6865 156.321 20.4932C156.215 20.3 156.059 20.1353 155.868 20.0145C155.232 19.68 154.519 19.4992 153.792 19.4882L152.496 19.3619C151.116 19.2811 149.794 18.8098 148.701 18.0093C148.264 17.6563 147.918 17.2144 147.687 16.7168C147.457 16.2191 147.349 15.6786 147.371 15.1358C147.345 14.2823 147.612 13.4438 148.133 12.7465C148.667 12.0739 149.396 11.5621 150.231 11.2729C151.212 10.9141 152.256 10.7355 153.308 10.7466C154.858 10.6783 156.392 11.0722 157.693 11.8729C158.248 12.2473 158.699 12.7438 159.006 13.3195C159.313 13.8953 159.468 14.5331 159.457 15.1779H156.068C156.045 14.9326 155.966 14.6951 155.835 14.4822C155.704 14.2694 155.525 14.0864 155.311 13.9464C154.714 13.5641 154 13.3791 153.28 13.4201C152.633 13.3837 151.99 13.5362 151.438 13.8569C151.234 13.9814 151.067 14.1541 150.955 14.3581C150.843 14.5621 150.789 14.7903 150.798 15.02C150.79 15.2192 150.833 15.4173 150.925 15.5964C151.018 15.7756 151.156 15.9302 151.327 16.0463C151.851 16.3363 152.441 16.5024 153.047 16.5305L154.349 16.662C155.812 16.7384 157.222 17.2056 158.416 18.0093C158.894 18.3577 159.277 18.8087 159.533 19.3248C159.789 19.841 159.912 20.4076 159.891 20.9776C159.912 21.8393 159.63 22.6832 159.09 23.3774C158.514 24.0858 157.744 24.6318 156.864 24.9563C155.783 25.3544 154.629 25.5475 153.469 25.5246Z" fill="white"/>
<path d="M165.907 25.0881V6.38403H169.752V25.0881H165.907ZM169.051 17.3255V14.1257H179.585V17.3255H169.051ZM178.884 25.0881V6.38403H182.729V25.0881H178.884Z" fill="white"/>
<path d="M190.694 25.5252C189.953 25.5668 189.211 25.4459 188.527 25.1721C187.842 24.8983 187.234 24.4788 186.749 23.9464C185.822 22.8938 185.358 21.3149 185.358 19.2098V11.1682H189.12V19.5309C189.08 20.2782 189.354 21.0101 189.882 21.5676C190.149 21.8244 190.471 22.0247 190.825 22.1553C191.18 22.286 191.56 22.3439 191.941 22.3254C192.334 22.3377 192.725 22.2734 193.091 22.1367C193.457 22 193.789 21.7938 194.066 21.5307C194.349 21.2424 194.568 20.9032 194.709 20.5335C194.851 20.1637 194.912 19.7709 194.89 19.3782V11.1682H198.652V25.0884H195.675V19.173H195.97C196.008 20.3652 195.82 21.5542 195.413 22.6833C195.091 23.5369 194.493 24.2733 193.705 24.7884C192.857 25.2983 191.866 25.555 190.861 25.5252H190.694Z" fill="white"/>
<path d="M210.01 25.5513C208.896 25.5743 207.795 25.3222 206.816 24.8197C205.885 24.3266 205.129 23.5829 204.646 22.683C204.091 21.6217 203.795 20.4565 203.778 19.2727H204.334V25.0881H201.352V6.38403H205.119V15.7361L204.117 17.1992C204.139 15.9544 204.448 14.7293 205.024 13.6099C205.5 12.7059 206.25 11.9565 207.178 11.4574C208.114 10.9702 209.169 10.7234 210.238 10.7417C211.195 10.7246 212.144 10.9041 213.02 11.2679C213.838 11.6176 214.567 12.1291 215.157 12.7678C215.762 13.4249 216.227 14.1861 216.526 15.0098C216.85 15.9092 217.01 16.8542 216.999 17.8044V18.3307C217.01 19.2954 216.846 20.2549 216.515 21.1673C216.206 22.0118 215.726 22.7912 215.102 23.4619C214.487 24.1214 213.727 24.6458 212.876 24.9987C211.973 25.3738 210.996 25.5622 210.01 25.5513ZM209.17 22.5515C209.923 22.5689 210.665 22.3688 211.295 21.9778C211.912 21.5821 212.404 21.0367 212.72 20.399C213.078 19.6786 213.255 18.8897 213.237 18.0938C213.259 17.2977 213.082 16.5079 212.72 15.7887C212.404 15.1569 211.9 14.6264 211.269 14.2626C210.638 13.8988 209.908 13.7176 209.17 13.7415C208.46 13.7349 207.759 13.892 207.128 14.1993C206.5 14.5126 205.975 14.9821 205.608 15.5571C205.204 16.2087 205.002 16.9545 205.024 17.7096V18.7622C205.001 19.4856 205.209 20.1989 205.62 20.8095C206.007 21.3653 206.54 21.8168 207.167 22.1199C207.788 22.4133 208.475 22.5613 209.17 22.5515Z" fill="white"/>
</svg>
