<svg width="29" height="29" viewBox="0 0 29 29" fill="none" xmlns="http://www.w3.org/2000/svg">
<path d="M18.2985 2.58716V14.2538C18.2985 15.5372 17.2485 16.5872 15.9652 16.5872H3.13184V7.25383C3.13184 4.67549 5.22017 2.58716 7.7985 2.58716H18.2985Z" stroke="#02775C" stroke-width="1.75" stroke-linecap="round" stroke-linejoin="round"/>
<path d="M26.4652 16.5872V20.0872C26.4652 22.0238 24.9018 23.5872 22.9652 23.5872H21.7985C21.7985 22.3038 20.7485 21.2538 19.4652 21.2538C18.1818 21.2538 17.1318 22.3038 17.1318 23.5872H12.4652C12.4652 22.3038 11.4152 21.2538 10.1318 21.2538C8.8485 21.2538 7.7985 22.3038 7.7985 23.5872H6.63184C4.69517 23.5872 3.13184 22.0238 3.13184 20.0872V16.5872H15.9652C17.2485 16.5872 18.2985 15.5372 18.2985 14.2538V6.08716H20.4452C21.2852 6.08716 22.0552 6.54217 22.4752 7.2655L24.4702 10.7538H22.9652C22.3235 10.7538 21.7985 11.2788 21.7985 11.9205V15.4205C21.7985 16.0622 22.3235 16.5872 22.9652 16.5872H26.4652Z" stroke="#02775C" stroke-width="1.75" stroke-linecap="round" stroke-linejoin="round"/>
<path d="M10.1319 25.9206C11.4205 25.9206 12.4652 24.8759 12.4652 23.5872C12.4652 22.2986 11.4205 21.2539 10.1319 21.2539C8.84319 21.2539 7.79852 22.2986 7.79852 23.5872C7.79852 24.8759 8.84319 25.9206 10.1319 25.9206Z" stroke="#02775C" stroke-width="1.75" stroke-linecap="round" stroke-linejoin="round"/>
<path d="M19.4652 25.9206C20.7538 25.9206 21.7985 24.8759 21.7985 23.5872C21.7985 22.2986 20.7538 21.2539 19.4652 21.2539C18.1765 21.2539 17.1318 22.2986 17.1318 23.5872C17.1318 24.8759 18.1765 25.9206 19.4652 25.9206Z" stroke="#02775C" stroke-width="1.75" stroke-linecap="round" stroke-linejoin="round"/>
<path d="M26.4652 14.2539V16.5872H22.9652C22.3235 16.5872 21.7985 16.0622 21.7985 15.4206V11.9206C21.7985 11.2789 22.3235 10.7539 22.9652 10.7539H24.4702L26.4652 14.2539Z" stroke="#02775C" stroke-width="1.75" stroke-linecap="round" stroke-linejoin="round"/>
</svg>
