<svg width="29" height="29" viewBox="0 0 29 29" fill="none" xmlns="http://www.w3.org/2000/svg">
<path d="M4.30664 25.8328H25.3579" stroke="#02775C" stroke-width="1.75427" stroke-linecap="round" stroke-linejoin="round"/>
<path d="M7.3493 9.90405H5.47811C4.83488 9.90405 4.30859 10.4303 4.30859 11.0736V21.1548C4.30859 21.798 4.83488 22.3243 5.47811 22.3243H7.3493C7.99254 22.3243 8.51882 21.798 8.51882 21.1548V11.0736C8.51882 10.4303 7.99254 9.90405 7.3493 9.90405Z" stroke="#02775C" stroke-width="1.75427" stroke-linecap="round" stroke-linejoin="round"/>
<path d="M15.7692 6.17334H13.898C13.2548 6.17334 12.7285 6.69962 12.7285 7.34285V21.1548C12.7285 21.7981 13.2548 22.3243 13.898 22.3243H15.7692C16.4125 22.3243 16.9387 21.7981 16.9387 21.1548V7.34285C16.9387 6.69962 16.4125 6.17334 15.7692 6.17334Z" stroke="#02775C" stroke-width="1.75427" stroke-linecap="round" stroke-linejoin="round"/>
<path d="M24.1911 2.4425H22.3199C21.6767 2.4425 21.1504 2.96879 21.1504 3.61202V21.1547C21.1504 21.798 21.6767 22.3243 22.3199 22.3243H24.1911C24.8343 22.3243 25.3606 21.798 25.3606 21.1547V3.61202C25.3606 2.96879 24.8343 2.4425 24.1911 2.4425Z" stroke="#02775C" stroke-width="1.75427" stroke-linecap="round" stroke-linejoin="round"/>
</svg>
