<svg width="1340" height="339" viewBox="0 0 1340 339" fill="none" xmlns="http://www.w3.org/2000/svg">
<rect width="183" height="301" fill="url(#paint0_linear_1496_5544)"/>
<rect x="1157" width="183" height="301" fill="url(#paint1_linear_1496_5544)"/>
<rect x="203" y="87" width="183" height="301" fill="url(#paint2_linear_1496_5544)"/>
<rect x="954" y="87" width="183" height="301" fill="url(#paint3_linear_1496_5544)"/>
<path d="M62.418 260.066C66.1592 261.235 69.7886 262.573 73.4294 263.93L78.8444 266.046L84.1415 268.23C85.8961 268.999 87.7709 269.568 89.6548 270.289C91.4663 270.929 93.1446 271.897 94.6058 273.144C97.8818 275.855 100.387 279.38 101.87 283.365L101.297 284.325C97.0953 284.956 92.8015 284.47 88.8467 282.917C87.0397 282.247 85.3751 281.243 83.9403 279.957C82.4903 278.671 81.0766 277.312 79.5623 276.142L75.0247 272.55L70.5824 268.85C67.643 266.301 64.6953 263.783 61.8791 261.085L62.418 260.066Z" fill="#71D392" fill-opacity="0.42"/>
<path d="M51.8957 261.135C50.7384 264.896 49.389 268.506 48.0426 272.166L45.927 277.581L43.732 282.858C42.9741 284.633 42.3939 286.488 41.6731 288.372C41.0425 290.191 40.078 291.877 38.8292 293.342C36.1101 296.61 32.5875 299.113 28.6077 300.607L27.6366 300.014C27.0059 295.812 27.4916 291.518 29.0452 287.564C29.7321 285.765 30.7343 284.104 32.0048 282.657C33.302 281.227 34.6612 279.813 35.851 278.288L39.4119 273.742L43.1113 269.299C45.6603 266.36 48.1783 263.412 50.8966 260.585L51.8957 261.135Z" fill="#71D392" fill-opacity="0.42"/>
<path d="M50.0174 254.068C46.2875 252.919 42.6468 251.562 39.0174 250.224L33.6023 248.108L28.3249 245.913C26.5506 245.155 24.6645 244.567 22.7919 243.865C20.9771 243.216 19.2956 242.242 17.8296 240.99C14.5582 238.286 12.0567 234.767 10.5767 230.789L11.1382 229.809C15.3401 229.179 19.6339 229.664 23.5887 231.218C25.3957 231.887 27.0602 232.891 28.495 234.177C29.9451 235.463 31.3588 236.822 32.8845 238.012L37.5286 241.516L41.9823 245.236C44.9103 247.765 47.8384 250.294 50.6856 253.001L50.0174 254.068Z" fill="#71D392" fill-opacity="0.42"/>
<path d="M58.3385 248.006C59.5071 244.265 60.8452 240.635 62.1833 237.006L64.2989 231.591L66.4826 226.294C67.2518 224.539 67.8403 222.653 68.5414 220.78C69.1762 218.966 70.1446 217.287 71.3968 215.829C74.1016 212.558 77.6201 210.057 81.5985 208.577L82.578 209.138C83.2087 213.34 82.7229 217.634 81.1694 221.588C80.5001 223.396 79.496 225.06 78.2097 226.495C76.9239 227.945 75.5647 229.359 74.3749 230.884L70.8026 235.411L67.0836 239.864C64.5543 242.792 62.0363 245.74 59.3179 248.567L58.3385 248.006Z" fill="#71D392" fill-opacity="0.42"/>
<defs>
<linearGradient id="paint0_linear_1496_5544" x1="91.5" y1="0" x2="91.5" y2="301" gradientUnits="userSpaceOnUse">
<stop offset="0.18" stop-color="#1D2523" stop-opacity="0.44"/>
<stop offset="1" stop-color="#6D8B83" stop-opacity="0"/>
</linearGradient>
<linearGradient id="paint1_linear_1496_5544" x1="1248.5" y1="0" x2="1248.5" y2="301" gradientUnits="userSpaceOnUse">
<stop offset="0.18" stop-color="#1D2523" stop-opacity="0.44"/>
<stop offset="1" stop-color="#6D8B83" stop-opacity="0"/>
</linearGradient>
<linearGradient id="paint2_linear_1496_5544" x1="294.5" y1="87" x2="294.5" y2="388" gradientUnits="userSpaceOnUse">
<stop offset="0.18" stop-color="#1D2523" stop-opacity="0.44"/>
<stop offset="1" stop-color="#6D8B83" stop-opacity="0"/>
</linearGradient>
<linearGradient id="paint3_linear_1496_5544" x1="1045.5" y1="87" x2="1045.5" y2="388" gradientUnits="userSpaceOnUse">
<stop offset="0.18" stop-color="#1D2523" stop-opacity="0.44"/>
<stop offset="1" stop-color="#6D8B83" stop-opacity="0"/>
</linearGradient>
</defs>
</svg>
