<svg width="28" height="28" viewBox="0 0 28 28" fill="none" xmlns="http://www.w3.org/2000/svg">
<circle cx="14" cy="14" r="14" fill="#DFFFF8"/>
<path d="M17.1627 14.1591V17.0228C17.1627 19.4091 16.2082 20.3637 13.8218 20.3637H10.9582C8.57179 20.3637 7.61725 19.4091 7.61725 17.0228V14.1591C7.61725 11.7728 8.57179 10.8182 10.9582 10.8182H13.8218C16.2082 10.8182 17.1627 11.7728 17.1627 14.1591Z" stroke="#002119" stroke-width="0.954545" stroke-linecap="round" stroke-linejoin="round"/>
<path d="M20.3446 11.1364C20.3446 12.9627 18.9509 14.4582 17.1627 14.6173V14.1591C17.1627 11.7727 16.2082 10.8182 13.8218 10.8182H13.3636C13.5227 9.02999 15.0182 7.63635 16.8446 7.63635C18.62 7.63635 20.0836 8.95363 20.3064 10.6718C20.3318 10.8182 20.3446 10.9773 20.3446 11.1364Z" stroke="#002119" stroke-width="0.954545" stroke-linecap="round" stroke-linejoin="round"/>
</svg>
