<svg width="28" height="28" viewBox="0 0 28 28" fill="none" xmlns="http://www.w3.org/2000/svg">
<circle cx="14" cy="14" r="14" fill="#DFFFF8"/>
<g clip-path="url(#clip0_3112_4263)">
<path d="M18 7.33337V12.6667M20.6666 10L15.3333 10" stroke="#002119" stroke-linecap="round" stroke-linejoin="round"/>
<path d="M7.33331 10C7.33331 9.06662 7.33331 8.59991 7.51497 8.24339C7.67476 7.92979 7.92973 7.67482 8.24333 7.51503C8.59985 7.33337 9.06656 7.33337 9.99998 7.33337C10.9334 7.33337 11.4001 7.33337 11.7566 7.51503C12.0702 7.67482 12.3252 7.92979 12.485 8.24339C12.6666 8.59991 12.6666 9.06662 12.6666 10C12.6666 10.9335 12.6666 11.4002 12.485 11.7567C12.3252 12.0703 12.0702 12.3253 11.7566 12.4851C11.4001 12.6667 10.9334 12.6667 9.99998 12.6667C9.06656 12.6667 8.59985 12.6667 8.24333 12.4851C7.92973 12.3253 7.67476 12.0703 7.51497 11.7567C7.33331 11.4002 7.33331 10.9335 7.33331 10Z" stroke="#002119"/>
<path d="M7.33331 18C7.33331 17.0666 7.33331 16.5999 7.51497 16.2434C7.67476 15.9298 7.92973 15.6748 8.24333 15.515C8.59985 15.3334 9.06656 15.3334 9.99998 15.3334C10.9334 15.3334 11.4001 15.3334 11.7566 15.515C12.0702 15.6748 12.3252 15.9298 12.485 16.2434C12.6666 16.5999 12.6666 17.0666 12.6666 18C12.6666 18.9335 12.6666 19.4002 12.485 19.7567C12.3252 20.0703 12.0702 20.3253 11.7566 20.4851C11.4001 20.6667 10.9334 20.6667 9.99998 20.6667C9.06656 20.6667 8.59985 20.6667 8.24333 20.4851C7.92973 20.3253 7.67476 20.0703 7.51497 19.7567C7.33331 19.4002 7.33331 18.9335 7.33331 18Z" stroke="#002119"/>
<path d="M15.3333 18C15.3333 17.0666 15.3333 16.5999 15.515 16.2434C15.6748 15.9298 15.9297 15.6748 16.2433 15.515C16.5998 15.3334 17.0666 15.3334 18 15.3334C18.9334 15.3334 19.4001 15.3334 19.7566 15.515C20.0702 15.6748 20.3252 15.9298 20.485 16.2434C20.6666 16.5999 20.6666 17.0666 20.6666 18C20.6666 18.9335 20.6666 19.4002 20.485 19.7567C20.3252 20.0703 20.0702 20.3253 19.7566 20.4851C19.4001 20.6667 18.9334 20.6667 18 20.6667C17.0666 20.6667 16.5998 20.6667 16.2433 20.4851C15.9297 20.3253 15.6748 20.0703 15.515 19.7567C15.3333 19.4002 15.3333 18.9335 15.3333 18Z" stroke="#002119"/>
</g>
<defs>
<clipPath id="clip0_3112_4263">
<rect width="16" height="16" fill="white" transform="translate(6 6)"/>
</clipPath>
</defs>
</svg>
