<svg width="23" height="24" viewBox="0 0 23 24" fill="none" xmlns="http://www.w3.org/2000/svg">
<path d="M15.3395 6.47912C15.2805 4.85426 15.0787 3.8699 14.3895 3.18203C13.4151 2.20935 11.8467 2.20935 8.7099 2.20935C5.57314 2.20935 4.00475 2.20935 3.03028 3.18203C2.05581 4.15471 2.05581 5.72021 2.05581 8.85121V14.5442C2.05581 17.6752 2.05581 19.2407 3.03028 20.2134C4.00475 21.1861 5.57314 21.1861 8.7099 21.1861C11.8467 21.1861 13.4151 21.1861 14.3895 20.2134C15.0787 19.5255 15.2805 18.5412 15.3395 16.9163" stroke="#9136A8" stroke-width="1.42326" stroke-linecap="round"/>
<path d="M7.74884 18.3396H9.64651" stroke="#9136A8" stroke-width="1.42326" stroke-linecap="round" stroke-linejoin="round"/>
<path d="M15.3395 11.6892L15.3395 11.6977M19.1807 15.9593C20.3249 14.8666 21.0326 13.357 21.0326 11.6896C21.0326 10.0221 20.3249 8.51253 19.1807 7.4198M17.2372 9.55468C17.8093 10.101 18.1631 10.8558 18.1631 11.6896C18.1631 12.5233 17.8093 13.2781 17.2372 13.8244" stroke="#9136A8" stroke-width="1.42326" stroke-linecap="round"/>
<path d="M5.85116 2.20935L5.93561 2.71604C6.11862 3.81411 6.21013 4.36315 6.58669 4.69724C6.9795 5.04575 7.53643 5.05586 8.69767 5.05586C9.85891 5.05586 10.4158 5.04575 10.8087 4.69724C11.1852 4.36315 11.2767 3.81411 11.4597 2.71604L11.5442 2.20935" stroke="#9136A8" stroke-width="1.42326" stroke-linejoin="round"/>
</svg>
