<svg width="23" height="23" viewBox="0 0 23 23" fill="none" xmlns="http://www.w3.org/2000/svg">
<path d="M13.2417 15.1334C13.2417 16.8075 12.5134 18.3208 11.35 19.3518C10.3474 20.2598 9.02325 20.8084 7.56666 20.8084C4.43595 20.8084 1.89166 18.2641 1.89166 15.1334C1.89166 12.5229 3.66983 10.3096 6.07225 9.65698C6.72487 11.3027 8.1247 12.5701 9.85558 13.0431C10.3285 13.1755 10.8298 13.2417 11.35 13.2417C11.8702 13.2417 12.3715 13.1755 12.8444 13.0431C13.0998 13.6862 13.2417 14.3956 13.2417 15.1334Z" stroke="#02775C" stroke-width="1.375" stroke-linecap="round" stroke-linejoin="round"/>
<path d="M17.025 7.5666C17.025 8.30435 16.8831 9.01373 16.6277 9.65689C15.9751 11.3026 14.5753 12.5701 12.8444 13.043C12.3715 13.1754 11.8702 13.2416 11.35 13.2416C10.8298 13.2416 10.3285 13.1754 9.85557 13.043C8.1247 12.5701 6.72486 11.3026 6.07224 9.65689C5.81686 9.01373 5.67499 8.30435 5.67499 7.5666C5.67499 4.43589 8.21928 1.8916 11.35 1.8916C14.4807 1.8916 17.025 4.43589 17.025 7.5666Z" stroke="#02775C" stroke-width="1.375" stroke-linecap="round" stroke-linejoin="round"/>
<path d="M20.8083 15.1334C20.8083 18.2641 18.264 20.8084 15.1333 20.8084C13.6767 20.8084 12.3526 20.2598 11.35 19.3518C12.5134 18.3208 13.2416 16.8075 13.2416 15.1334C13.2416 14.3956 13.0998 13.6862 12.8444 13.0431C14.5753 12.5701 15.9751 11.3027 16.6277 9.65698C19.0301 10.3096 20.8083 12.5229 20.8083 15.1334Z" stroke="#02775C" stroke-width="1.375" stroke-linecap="round" stroke-linejoin="round"/>
</svg>
