<svg width="24" height="24" viewBox="0 0 24 24" fill="none" xmlns="http://www.w3.org/2000/svg">
<path d="M15.6186 6.72094C15.5595 5.09608 15.3577 4.11172 14.6686 3.42385C13.6941 2.45117 12.1257 2.45117 8.98897 2.45117C5.8522 2.45117 4.28382 2.45117 3.30935 3.42385C2.33488 4.39653 2.33488 5.96203 2.33488 9.09303V14.7861C2.33488 17.9171 2.33488 19.4826 3.30935 20.4552C4.28382 21.4279 5.8522 21.4279 8.98897 21.4279C12.1257 21.4279 13.6941 21.4279 14.6686 20.4552C15.3577 19.7674 15.5595 18.783 15.6186 17.1581" stroke="#181818" stroke-width="1.42326" stroke-linecap="round"/>
<path d="M8.0279 18.5813H9.92558" stroke="#181818" stroke-width="1.42326" stroke-linecap="round" stroke-linejoin="round"/>
<path d="M15.6186 11.931L15.6186 11.9395M19.4597 16.2012C20.6039 15.1084 21.3116 13.5988 21.3116 11.9314C21.3116 10.2639 20.6039 8.75435 19.4597 7.66162M17.5163 9.7965C18.0884 10.3429 18.4422 11.0977 18.4422 11.9314C18.4422 12.7651 18.0884 13.5199 17.5163 14.0663" stroke="#181818" stroke-width="1.42326" stroke-linecap="round"/>
<path d="M6.13023 2.45117L6.21468 2.95787C6.39769 4.05593 6.4892 4.60497 6.86576 4.93906C7.25857 5.28757 7.8155 5.29768 8.97674 5.29768C10.138 5.29768 10.6949 5.28757 11.0877 4.93906C11.4643 4.60497 11.5558 4.05593 11.7388 2.95787L11.8233 2.45117" stroke="#181818" stroke-width="1.42326" stroke-linejoin="round"/>
</svg>
