<svg width="30" height="29" viewBox="0 0 30 29" fill="none" xmlns="http://www.w3.org/2000/svg">
<path d="M25.6874 26.1056V8.90248C25.6874 7.60172 25.6874 6.95133 25.3134 6.40246C24.9395 5.85359 24.2505 5.49282 22.8727 4.77129L21.1196 3.85324C18.9566 2.72059 17.8751 2.15427 17.0405 2.50511C16.2059 2.85596 16.2059 3.87692 16.2059 5.91884V10.6982" stroke="#02775C" stroke-width="1.77778" stroke-linejoin="round"/>
<path d="M26.8726 26.1055H3.16888" stroke="#02775C" stroke-width="1.77778" stroke-linecap="round" stroke-linejoin="round"/>
<path d="M25.6874 9.51294H23.317M25.6874 13.0685H23.317M25.6874 16.6241H23.317" stroke="#02775C" stroke-width="1.77778" stroke-linecap="round" stroke-linejoin="round"/>
<path d="M10.28 15.439C10.28 13.2042 10.28 12.0868 10.9743 11.3925C11.6686 10.6982 12.786 10.6982 15.0208 10.6982C17.2556 10.6982 18.373 10.6982 19.0672 11.3925C19.7615 12.0868 19.7615 13.2042 19.7615 15.439V26.1056H10.28V15.439Z" stroke="#02775C" stroke-width="1.77778" stroke-linejoin="round"/>
<path d="M14.4281 15.439H15.6133M14.4281 18.9945H15.6133" stroke="#02775C" stroke-width="1.77778" stroke-linecap="round"/>
<ellipse cx="4.94666" cy="16.624" rx="1.77778" ry="2.37037" stroke="#02775C" stroke-width="1.77778"/>
<path d="M4.94666 18.9944V26.1055" stroke="#02775C" stroke-width="1.77778" stroke-linecap="round"/>
</svg>
