<svg width="193" height="193" viewBox="0 0 193 193" fill="none" xmlns="http://www.w3.org/2000/svg">
<path d="M91.1518 184.116L91.6056 179.092L88.7663 178.836C87.1064 178.686 86.0486 179.548 85.9076 181.11C85.7694 182.638 86.7072 183.714 88.3452 183.862L91.1518 184.116ZM91.8217 176.701L92.3426 170.935L95.6406 171.233L94.2169 186.991L87.7629 186.408C84.1373 186.08 82.2351 183.982 82.5163 180.869C82.6988 178.849 83.905 177.196 85.782 176.65L83.0275 170.093L86.7623 170.43L89.1789 176.462L91.8217 176.701Z" fill="#181818"/>
<path d="M65.5581 167.607L66.464 165.02L76.3575 168.484L71.1284 183.417L61.2349 179.953L62.1373 177.376L68.9054 179.746L70.1665 176.145L63.7812 173.909L64.6219 171.508L71.0072 173.744L72.3262 169.977L65.5581 167.607Z" fill="#181818"/>
<path d="M58.1193 166.078L55.4565 164.32C56.0473 163.147 55.3839 161.684 53.9198 160.717C52.4466 159.744 50.9748 159.784 50.3344 160.754C49.7666 161.615 50.0838 162.507 51.4403 163.915L52.9129 165.426C55.0026 167.555 55.3857 169.582 54.111 171.512C52.504 173.946 49.3361 174.167 46.3896 172.222C43.3151 170.192 42.4295 167.334 43.9605 164.916L46.5501 166.626C45.9046 167.802 46.4366 169.126 47.8183 170.038C49.1817 170.938 50.5257 170.893 51.1722 169.914C51.7099 169.099 51.3714 168.219 50.082 166.868L48.7042 165.472C46.4343 163.159 46.0304 161.263 47.3596 159.25C49.0511 156.688 52.1976 156.44 55.4735 158.603C58.6487 160.699 59.6741 163.544 58.1193 166.078Z" fill="#181818"/>
<path d="M35.332 144.549L37.3553 142.7L44.4278 150.437L32.7493 161.112L25.6768 153.375L27.692 151.533L32.5303 156.826L35.3467 154.252L30.7822 149.258L32.6598 147.542L37.2243 152.535L40.1703 149.842L35.332 144.549Z" fill="#181818"/>
<path d="M28.3085 127.898L25.4824 130.761L28.0857 135.673L32.0414 134.942L33.6331 137.945L17.0803 140.5L15.2575 137.061L26.6603 124.788L28.3085 127.898ZM18.8866 137.446L25.5623 136.204L23.6266 132.551L18.8506 137.378L18.8866 137.446Z" fill="#181818"/>
<path d="M10.8523 118.206L15.7733 117.099L15.148 114.318C14.7824 112.692 13.6376 111.949 12.1078 112.293C10.6101 112.63 9.87338 113.852 10.2341 115.456L10.8523 118.206ZM18.1161 116.573L23.7646 115.303L24.491 118.534L9.0539 122.004L7.63248 115.682C6.83398 112.13 8.24914 109.676 11.298 108.991C13.2772 108.546 15.2197 109.188 16.3143 110.808L21.7131 106.177L22.5356 109.836L17.5341 113.984L18.1161 116.573Z" fill="#181818"/>
<path d="M21.6741 92.4115C21.4368 97.0107 18.2112 99.7319 13.1083 99.4686C8.01638 99.2059 5.08902 96.1453 5.32515 91.5681C5.52118 87.7683 8.0794 85.0017 11.6294 84.9323L11.4633 88.1517C9.50925 88.3583 8.16217 89.782 8.06275 91.7093C7.93395 94.206 9.94243 95.9236 13.2713 96.0953C16.6441 96.2693 18.8065 94.7889 18.937 92.2593C19.0382 90.2992 17.9612 88.8273 16.1068 88.3803L16.2729 85.1609C19.7797 85.7151 21.8741 88.5351 21.6741 92.4115Z" fill="#181818"/>
<path d="M27.7014 65.0872L26.6058 68.2121L20.3145 66.0064L17.9564 72.7322L24.2477 74.938L23.152 78.0629L8.22074 72.8279L9.31635 69.703L15.3799 71.8289L17.738 65.1031L11.6745 62.9771L12.7701 59.8522L27.7014 65.0872Z" fill="#181818"/>
<path d="M37.7698 41.4137L33.0888 46.8897L30.9635 45.0729L35.6444 39.5969L37.7698 41.4137Z" fill="#181818"/>
<path d="M57.4972 31.9221L54.7002 33.6947L46.2306 20.33L49.0276 18.5574L57.4972 31.9221Z" fill="#181818"/>
<path d="M58.2428 13.3947L63.9034 11.2828C68.3517 9.62324 71.9602 11.2964 73.7156 16.0015C75.4711 20.7067 73.8824 24.4476 69.4341 26.1071L63.7735 28.219L58.2428 13.3947ZM62.2997 14.7952L65.9178 24.4932L68.106 23.6768C70.8798 22.642 71.7511 20.3976 70.5553 17.1923C69.3978 14.0898 67.2206 12.9593 64.4879 13.9789L62.2997 14.7952Z" fill="#181818"/>
<path d="M93.4395 18.2849L93.7238 21.0114L83.2978 22.0984L81.6571 6.36126L92.0831 5.27429L92.3662 7.98984L85.2338 8.73344L85.6295 12.5287L92.3584 11.8271L92.6221 14.3573L85.8932 15.0588L86.3071 19.0285L93.4395 18.2849Z" fill="#181818"/>
<path d="M111.004 22.5378L110.382 18.5633L104.884 17.7363L103.121 21.3519L99.7594 20.8462L107.546 6.0171L111.395 6.59621L114.484 23.0615L111.004 22.5378ZM108.928 9.28544L105.958 15.3918L110.046 16.0068L109.004 9.29686L108.928 9.28544Z" fill="#181818"/>
<path d="M127.31 27.8975L124.271 26.5805L129.478 14.5683L125.283 12.7498L126.369 10.2448L137.808 15.2032L136.722 17.7082L132.517 15.8854L127.31 27.8975Z" fill="#181818"/>
<path d="M147.39 37.4187L145.733 39.6021L137.383 33.2645L146.949 20.6614L155.299 26.999L153.648 29.1738L147.936 24.8382L145.629 27.8776L151.018 31.9679L149.48 33.9942L144.091 29.9039L141.678 33.0831L147.39 37.4187Z" fill="#181818"/>
<path d="M165.149 55.4143L161.216 49.3784L163.559 47.8521L167.492 53.888L165.149 55.4143Z" fill="#181818"/>
<path d="M172.937 83.0228L170.27 83.6566L167.905 73.7036L183.298 70.0451L184.064 73.2667L171.337 76.2914L172.937 83.0228Z" fill="#181818"/>
<path d="M171.046 101.234L174.906 100.105L175.017 94.5464L171.204 93.2643L171.271 89.8658L186.982 95.6726L186.904 99.5644L170.976 104.753L171.046 101.234ZM183.919 97.4652L177.48 95.3083L177.398 99.4412L183.918 97.5419L183.919 97.4652Z" fill="#181818"/>
<path d="M184.073 119.007L174.593 116.152C172.65 115.567 171.035 116.328 170.422 118.365C169.811 120.392 170.737 121.919 172.679 122.504L182.16 125.359L181.205 128.53L171.409 125.579C168.071 124.574 166.535 121.42 167.702 117.546C168.872 113.662 171.894 111.88 175.233 112.886L185.028 115.837L184.073 119.007Z" fill="#181818"/>
<path d="M161.392 133.226L163.106 130.561L176.412 139.123L174.917 141.446L162.251 142.084L162.203 142.158L170.871 147.735L169.156 150.4L155.85 141.839L157.333 139.533L170.052 138.916L170.106 138.833L161.392 133.226Z" fill="#181818"/>
<path d="M145.207 152.382C148.689 149.369 152.886 149.811 156.23 153.675C159.566 157.53 159.385 161.762 155.92 164.761C153.043 167.251 149.275 167.321 146.767 164.808L149.204 162.699C150.707 163.965 152.666 163.951 154.126 162.688C156.016 161.052 155.864 158.414 153.683 155.893C151.473 153.34 148.908 152.805 146.992 154.462C145.508 155.747 145.192 157.543 146.154 159.19L143.716 161.3C141.687 158.386 142.272 154.922 145.207 152.382Z" fill="#181818"/>
<path d="M121.32 166.955L124.333 165.582L127.098 171.648L133.584 168.692L130.818 162.625L133.831 161.252L140.394 175.649L137.381 177.022L134.716 171.176L128.231 174.132L130.896 179.979L127.883 181.352L121.32 166.955Z" fill="#181818"/>
<path d="M97.2691 176.085L104.461 175.67L104.622 178.462L97.4302 178.877L97.2691 176.085Z" fill="#181818"/>
<circle cx="96" cy="96" r="26" fill="#02775C"/>
<circle cx="95.5" cy="95.5" r="9.5" fill="white"/>
</svg>
