<svg width="43" height="43" viewBox="0 0 43 43" fill="none" xmlns="http://www.w3.org/2000/svg">
<rect x="0.670898" y="0.856201" width="41.6145" height="41.6145" rx="20.8072" fill="#EEFFE8"/>
<path d="M21.7754 13.7807L28.9779 16.6617C29.258 16.7737 29.4821 17.1098 29.4821 17.4059V20.0628C29.4821 20.503 29.122 20.8631 28.6818 20.8631H14.2768C13.8367 20.8631 13.4766 20.503 13.4766 20.0628V17.4059C13.4766 17.1098 13.7006 16.7737 13.9807 16.6617L21.1832 13.7807C21.3433 13.7167 21.6154 13.7167 21.7754 13.7807Z" stroke="#02775C" stroke-width="1.20042" stroke-miterlimit="10" stroke-linecap="round" stroke-linejoin="round"/>
<path d="M29.4821 29.6662H13.4766V27.2654C13.4766 26.8252 13.8367 26.4651 14.2768 26.4651H28.6818C29.122 26.4651 29.4821 26.8252 29.4821 27.2654V29.6662Z" stroke="#02775C" stroke-width="1.20042" stroke-miterlimit="10" stroke-linecap="round" stroke-linejoin="round"/>
<path d="M15.0762 26.465V20.863" stroke="#02775C" stroke-width="1.20042" stroke-miterlimit="10" stroke-linecap="round" stroke-linejoin="round"/>
<path d="M18.2773 26.465V20.863" stroke="#02775C" stroke-width="1.20042" stroke-miterlimit="10" stroke-linecap="round" stroke-linejoin="round"/>
<path d="M21.4785 26.465V20.863" stroke="#02775C" stroke-width="1.20042" stroke-miterlimit="10" stroke-linecap="round" stroke-linejoin="round"/>
<path d="M24.6797 26.465V20.863" stroke="#02775C" stroke-width="1.20042" stroke-miterlimit="10" stroke-linecap="round" stroke-linejoin="round"/>
<path d="M27.8809 26.465V20.863" stroke="#02775C" stroke-width="1.20042" stroke-miterlimit="10" stroke-linecap="round" stroke-linejoin="round"/>
<path d="M12.6758 29.6661H30.2819" stroke="#02775C" stroke-width="1.20042" stroke-miterlimit="10" stroke-linecap="round" stroke-linejoin="round"/>
<path d="M21.4787 18.8624C22.1417 18.8624 22.6792 18.3249 22.6792 17.662C22.6792 16.999 22.1417 16.4615 21.4787 16.4615C20.8158 16.4615 20.2783 16.999 20.2783 17.662C20.2783 18.3249 20.8158 18.8624 21.4787 18.8624Z" stroke="#02775C" stroke-width="1.20042" stroke-miterlimit="10" stroke-linecap="round" stroke-linejoin="round"/>
</svg>
