<svg width="82" height="82" viewBox="0 0 82 82" fill="none" xmlns="http://www.w3.org/2000/svg">
<circle cx="41" cy="41" r="41" fill="#DAFFF6"/>
<path d="M29.7151 35.8796C30.124 35.8796 30.5161 36.042 30.8052 36.3311C31.0943 36.6202 31.2568 37.0123 31.2568 37.4212C33.6789 37.4177 36.0313 38.2326 37.9322 39.7337H41.2776C43.3311 39.7337 45.178 40.6279 46.4483 42.0462H51.2984C52.7557 42.0458 54.1832 42.4585 55.4155 43.2365C56.6477 44.0144 57.6342 45.1257 58.2606 46.4415C54.6145 51.2515 48.7115 54.3796 42.0484 54.3796C37.7472 54.3796 34.1088 53.4499 31.1627 51.8235C31.0545 52.1209 30.8574 52.3777 30.5981 52.5592C30.3388 52.7407 30.03 52.838 29.7135 52.8379H25.0885C24.6797 52.8379 24.2875 52.6755 23.9984 52.3863C23.7093 52.0972 23.5469 51.7051 23.5469 51.2962V37.4212C23.5469 37.0123 23.7093 36.6202 23.9984 36.3311C24.2875 36.042 24.6797 35.8796 25.0885 35.8796H29.7151ZM31.2568 40.5046V48.2468L31.3261 48.2961C34.0919 50.2386 37.6978 51.2962 42.0484 51.2962C46.6796 51.2962 50.987 49.5141 54.1274 46.4708L54.3324 46.2658L54.1474 46.1116C53.4192 45.5419 52.5369 45.2036 51.6145 45.1403L51.2984 45.1296H48.0424C48.1555 45.626 48.213 46.1399 48.2151 46.6712V48.2129H34.3401V45.1296L44.808 45.128L44.7556 45.0062C44.4601 44.389 44.0055 43.8617 43.4387 43.4783C42.8719 43.0949 42.2133 42.8693 41.5304 42.8248L41.2776 42.8171H36.7605C36.043 42.085 35.1866 41.5034 34.2416 41.1064C33.2965 40.7093 32.2818 40.5047 31.2568 40.5046ZM28.1734 38.9629H26.6318V49.7546H28.1734V38.9629ZM49.7567 29.7129C50.9834 29.7129 52.1598 30.2002 53.0271 31.0675C53.8945 31.9349 54.3817 33.1113 54.3817 34.3379C54.3817 35.5645 53.8945 36.7409 53.0271 37.6083C52.1598 38.4756 50.9834 38.9629 49.7567 38.9629C48.5301 38.9629 47.3537 38.4756 46.4864 37.6083C45.619 36.7409 45.1318 35.5645 45.1318 34.3379C45.1318 33.1113 45.619 31.9349 46.4864 31.0675C47.3537 30.2002 48.5301 29.7129 49.7567 29.7129ZM49.7567 32.7962C49.3479 32.7962 48.9557 32.9586 48.6666 33.2478C48.3775 33.5369 48.2151 33.929 48.2151 34.3379C48.2151 34.7468 48.3775 35.1389 48.6666 35.428C48.9557 35.7171 49.3479 35.8796 49.7567 35.8796C50.1656 35.8796 50.5578 35.7171 50.8469 35.428C51.136 35.1389 51.2984 34.7468 51.2984 34.3379C51.2984 33.929 51.136 33.5369 50.8469 33.2478C50.5578 32.9586 50.1656 32.7962 49.7567 32.7962ZM38.9651 25.0879C40.1917 25.0879 41.3681 25.5752 42.2355 26.4425C43.1028 27.3099 43.5901 28.4863 43.5901 29.7129C43.5901 30.9395 43.1028 32.1159 42.2355 32.9833C41.3681 33.8506 40.1917 34.3379 38.9651 34.3379C37.7385 34.3379 36.5621 33.8506 35.6947 32.9833C34.8274 32.1159 34.3401 30.9395 34.3401 29.7129C34.3401 28.4863 34.8274 27.3099 35.6947 26.4425C36.5621 25.5752 37.7385 25.0879 38.9651 25.0879ZM38.9651 28.1712C38.5562 28.1712 38.1641 28.3336 37.875 28.6228C37.5858 28.9119 37.4234 29.304 37.4234 29.7129C37.4234 30.1218 37.5858 30.5139 37.875 30.803C38.1641 31.0921 38.5562 31.2546 38.9651 31.2546C39.374 31.2546 39.7661 31.0921 40.0552 30.803C40.3443 30.5139 40.5068 30.1218 40.5068 29.7129C40.5068 29.304 40.3443 28.9119 40.0552 28.6228C39.7661 28.3336 39.374 28.1712 38.9651 28.1712Z" fill="#02775C"/>
</svg>
