<svg width="46" height="46" viewBox="0 0 46 46" fill="none" xmlns="http://www.w3.org/2000/svg">
<rect width="46" height="46" rx="6" fill="#FFF5E5"/>
<path d="M22.5294 33H21.4706C17.4775 33 15.481 33 14.2405 31.8284C13 30.6569 13 28.7712 13 25L13 21C13 17.2288 13 15.3431 14.2405 14.1716C15.481 13 17.4775 13 21.4706 13L22.5294 13C26.5225 13 28.519 13 29.7595 14.1716C31 15.3431 31 17.2288 31 21V21.5" stroke="#FF9900" stroke-width="1.5" stroke-linecap="round"/>
<path d="M18 18H26" stroke="#FF9900" stroke-width="1.5" stroke-linecap="round"/>
<path d="M18 23H23" stroke="#FF9900" stroke-width="1.5" stroke-linecap="round"/>
<path d="M29 31.7143V33M29 31.7143C27.8432 31.7143 26.8241 31.1461 26.2263 30.2833M29 31.7143C30.1568 31.7143 31.1759 31.1461 31.7737 30.2833M29 25.2857C30.1569 25.2857 31.1761 25.854 31.7738 26.7169M29 25.2857C27.8431 25.2857 26.8239 25.854 26.2262 26.7169M29 25.2857V24M33 25.9286L31.7738 26.7169M25.0004 31.0714L26.2263 30.2833M25 25.9286L26.2262 26.7169M32.9996 31.0714L31.7737 30.2833M31.7738 26.7169C32.1273 27.2271 32.3333 27.8403 32.3333 28.5C32.3333 29.1597 32.1272 29.773 31.7737 30.2833M26.2262 26.7169C25.8727 27.2271 25.6667 27.8403 25.6667 28.5C25.6667 29.1597 25.8728 29.773 26.2263 30.2833" stroke="#FF9900" stroke-width="1.5" stroke-linecap="round"/>
</svg>
