<svg width="166" height="166" viewBox="0 0 166 166" fill="none" xmlns="http://www.w3.org/2000/svg">
<path d="M94.0589 92.4633C100.702 94.5384 107.147 96.9144 113.612 99.3253L123.227 103.082L132.634 106.96C135.749 108.326 139.078 109.336 142.424 110.616C145.64 111.752 148.62 113.471 151.215 115.686C157.032 120.5 161.481 126.759 164.114 133.836L163.097 135.54C155.636 136.66 148.011 135.798 140.989 133.039C137.78 131.851 134.824 130.068 132.276 127.784C129.702 125.5 127.191 123.087 124.502 121.009L116.445 114.631L108.556 108.062C103.337 103.536 98.1027 99.0644 93.102 94.2723L94.0589 92.4633Z" fill="#71D392"/>
<path d="M75.3746 94.361C73.3196 101.039 70.9234 107.449 68.5326 113.949L64.7759 123.565L60.8782 132.936C59.5324 136.086 58.5021 139.381 57.2222 142.726C56.1024 145.956 54.3898 148.95 52.1722 151.552C47.344 157.354 41.0889 161.8 34.0219 164.451L32.2974 163.399C31.1775 155.938 32.0401 148.313 34.7987 141.291C36.0184 138.097 37.7981 135.147 40.0542 132.578C42.3576 130.039 44.7711 127.528 46.8838 124.819L53.207 116.747L59.7761 108.859C64.3023 103.639 68.7735 98.4049 73.6005 93.3841L75.3746 94.361Z" fill="#71D392"/>
<path d="M72.0387 81.813C65.4155 79.7728 58.9506 77.3619 52.5058 74.9859L42.8903 71.2292L33.5191 67.3314C30.3685 65.9856 27.0192 64.9407 23.6941 63.6956C20.4716 62.5425 17.4857 60.8126 14.8825 58.5905C9.07347 53.7875 4.63154 47.5396 2.00345 40.4751L3.00055 38.7359C10.4618 37.6159 18.0865 38.4785 25.1089 41.2372C28.3177 42.4255 31.2735 44.2085 33.8212 46.4927C36.3961 48.7759 38.9065 51.1894 41.6156 53.3021L49.8623 59.5246L57.7707 66.1286C62.9701 70.6198 68.1694 75.1111 73.2252 79.918L72.0387 81.813Z" fill="#71D392"/>
<path d="M86.8149 71.048C88.8901 64.4046 91.2661 57.9598 93.6421 51.515L97.3988 41.8995L101.276 32.4934C102.642 29.3777 103.687 26.0285 104.932 22.7033C106.06 19.4824 107.779 16.5007 110.003 13.9119C114.806 8.1029 121.053 3.66089 128.118 1.0328L129.857 2.0299C130.977 9.49118 130.115 17.1158 127.356 24.1383C126.168 27.347 124.385 30.3028 122.1 32.8506C119.817 35.4255 117.404 37.9359 115.291 40.645L108.948 48.6823L102.344 56.5907C97.8523 61.7901 93.3812 67.0243 88.5541 72.0451L86.8149 71.048Z" fill="#71D392"/>
</svg>
