<svg width="127" height="153" viewBox="0 0 127 153" fill="none" xmlns="http://www.w3.org/2000/svg">
<path d="M121.72 94.4634C99.1524 77.4231 93.0536 46.7233 104.794 21.597C105.464 20.3747 105.87 19.0258 105.987 17.6371C106.104 16.2484 105.928 14.8506 105.472 13.5338C105.016 12.2169 104.289 11.0102 103.338 9.99127C102.388 8.97232 101.234 8.16373 99.9518 7.61758C96.4341 1.40452 88.2567 -2.15885 81.5639 4.09989C63.2847 21.6076 39.1183 31.6457 13.8142 32.2414C1.75356 32.4927 -4.04833 47.2258 6.11642 54.7637C29.5525 72.1466 38.4609 106.684 24.8241 132.93C19.9588 142.272 28.8215 158.581 40.4709 150.952C52.1204 143.323 60.3208 132.313 70.7825 122.902C82.3178 112.532 96.3885 112.806 110.779 116.323C124.005 119.59 133.141 103.166 121.72 94.4634ZM69.1835 94.4634C64.1216 96.8619 59.4908 100.08 55.4782 103.989C55.2548 85.9586 49.5329 68.4265 39.0776 53.7359C51.51 50.9784 63.4543 46.3578 74.5058 40.0306C73.0836 57.4391 77.0724 74.862 85.9268 89.9178C80.0949 90.5158 74.3961 92.0427 69.0465 94.4406L69.1835 94.4634Z" fill="#FFD663"/>
</svg>
