<svg width="172" height="2141" viewBox="0 0 172 2141" fill="none" xmlns="http://www.w3.org/2000/svg">
<path d="M0.666667 14C0.666667 21.3638 6.6362 27.3333 14 27.3333C21.3638 27.3333 27.3333 21.3638 27.3333 14C27.3333 6.6362 21.3638 0.666667 14 0.666667C6.6362 0.666667 0.666667 6.6362 0.666667 14ZM145.167 2127C145.167 2134.36 151.136 2140.33 158.5 2140.33C165.864 2140.33 171.833 2134.36 171.833 2127C171.833 2119.64 165.864 2113.67 158.5 2113.67C151.136 2113.67 145.167 2119.64 145.167 2127ZM11.5 14V272.5H16.5V14H11.5ZM44 305H128.5V300H44V305ZM156 332.5V846H161V332.5H156ZM128.5 873.5H44V878.5H128.5V873.5ZM11.5 906V1351H16.5V906H11.5ZM44 1383.5H128.5V1378.5H44V1383.5ZM156 1411V2127H161V1411H156ZM128.5 1383.5C143.688 1383.5 156 1395.81 156 1411H161C161 1393.05 146.449 1378.5 128.5 1378.5V1383.5ZM11.5 1351C11.5 1368.95 26.0507 1383.5 44 1383.5V1378.5C28.8122 1378.5 16.5 1366.19 16.5 1351H11.5ZM44 873.5C26.0507 873.5 11.5 888.051 11.5 906H16.5C16.5 890.812 28.8122 878.5 44 878.5V873.5ZM156 846C156 861.188 143.688 873.5 128.5 873.5V878.5C146.449 878.5 161 863.949 161 846H156ZM128.5 305C143.688 305 156 317.312 156 332.5H161C161 314.551 146.449 300 128.5 300V305ZM11.5 272.5C11.5 290.449 26.0507 305 44 305V300C28.8122 300 16.5 287.688 16.5 272.5H11.5Z" fill="url(#paint0_linear_3179_6241)"/>
<defs>
<linearGradient id="paint0_linear_3179_6241" x1="86.25" y1="14" x2="86.25" y2="2127" gradientUnits="userSpaceOnUse">
<stop stop-color="#02775C"/>
<stop offset="0.331531" stop-color="white"/>
<stop offset="0.371799" stop-color="white"/>
<stop offset="1" stop-color="#02775C"/>
</linearGradient>
</defs>
</svg>
